<svg id="Layer_1" data-name="Layer 1" xmlns="http://www.w3.org/2000/svg" viewBox="0 0 240.06 31"><defs><style>.cls-1{fill:#e09e10;}.cls-2{fill:#787878;}.cls-3{fill:#00467f;}</style></defs><title>Section-Logos</title><rect class="cls-1" x="113.64" y="1.43" width="0.45" height="29.23"/><path class="cls-2" d="M126.41,4.7h-3.12v8.41h-1.12V4.7h-3.12v-1h7.36Z"/><path class="cls-2" d="M127.55,3h1V7.73h0a1.91,1.91,0,0,1,.3-.36,2.2,2.2,0,0,1,.44-.33,2.72,2.72,0,0,1,.58-.24,2.54,2.54,0,0,1,.68-.1,2.79,2.79,0,0,1,1.06.19,2,2,0,0,1,.74.52,2,2,0,0,1,.44.81,3.72,3.72,0,0,1,.14,1v3.86h-1V9.36a2,2,0,0,0-.35-1.24,1.27,1.27,0,0,0-1.08-.45,1.93,1.93,0,0,0-.87.17,1.45,1.45,0,0,0-.6.49,2.31,2.31,0,0,0-.35.76,4.26,4.26,0,0,0-.11,1v3h-1Z"/><path class="cls-2" d="M140.54,12a3.26,3.26,0,0,1-1.23,1,3.93,3.93,0,0,1-1.55.29,3.27,3.27,0,0,1-1.32-.26,3.11,3.11,0,0,1-1-.7,3.22,3.22,0,0,1-.63-1A3.87,3.87,0,0,1,134.6,10a3.58,3.58,0,0,1,.24-1.33,3,3,0,0,1,.67-1,2.93,2.93,0,0,1,1-.67,3.18,3.18,0,0,1,1.28-.25,3.29,3.29,0,0,1,1.2.22,2.6,2.6,0,0,1,.94.65,2.8,2.8,0,0,1,.61,1,4.25,4.25,0,0,1,.21,1.38v.34h-5a2.34,2.34,0,0,0,.63,1.4,2.16,2.16,0,0,0,.63.44,2,2,0,0,0,.78.16,2.48,2.48,0,0,0,1.15-.24,2.66,2.66,0,0,0,.84-.71Zm-.9-2.54a1.83,1.83,0,0,0-.52-1.29,1.9,1.9,0,0,0-1.36-.47,1.9,1.9,0,0,0-2,1.76Z"/><path class="cls-2" d="M152.88,5.61a2.65,2.65,0,0,0-1-.86,3.13,3.13,0,0,0-1.31-.29,3.3,3.3,0,0,0-1.44.32,3.73,3.73,0,0,0-1.14.86,4,4,0,0,0-.75,1.26,4.14,4.14,0,0,0-.27,1.49,4.34,4.34,0,0,0,.27,1.54,4,4,0,0,0,.74,1.24,3.58,3.58,0,0,0,4.14.8,3.7,3.7,0,0,0,1.19-1l.84.7A4,4,0,0,1,152.56,13a5.08,5.08,0,0,1-2,.4,4.8,4.8,0,0,1-1.89-.38,4.6,4.6,0,0,1-2.54-2.6,5.1,5.1,0,0,1-.37-2,5.2,5.2,0,0,1,.36-1.95,4.6,4.6,0,0,1,1-1.58,4.8,4.8,0,0,1,1.52-1.05,4.72,4.72,0,0,1,1.93-.39,5.07,5.07,0,0,1,1.85.35,3.43,3.43,0,0,1,1.49,1.13Z"/><path class="cls-2" d="M155.56,3h1V13.11h-1Z"/><path class="cls-2" d="M164.24,12A3.16,3.16,0,0,1,163,13a3.93,3.93,0,0,1-1.55.29,3.27,3.27,0,0,1-1.32-.26,3.11,3.11,0,0,1-1-.7,3.22,3.22,0,0,1-.63-1,3.63,3.63,0,0,1-.22-1.28,3.58,3.58,0,0,1,.24-1.33,3,3,0,0,1,.67-1,2.93,2.93,0,0,1,1-.67,3.18,3.18,0,0,1,1.28-.25,3.29,3.29,0,0,1,1.2.22,2.69,2.69,0,0,1,.94.65,3,3,0,0,1,.61,1,4.25,4.25,0,0,1,.21,1.38v.34h-5a2.24,2.24,0,0,0,.19.76,2.08,2.08,0,0,0,.44.64,2,2,0,0,0,.62.44,2.06,2.06,0,0,0,.79.16,2.51,2.51,0,0,0,1.15-.24,2.66,2.66,0,0,0,.84-.71Zm-.89-2.54a1.83,1.83,0,0,0-.52-1.29,1.9,1.9,0,0,0-1.36-.47,2.06,2.06,0,0,0-1.4.47,2,2,0,0,0-.64,1.29Z"/><path class="cls-2" d="M166,7.67a2.86,2.86,0,0,1,1.14-.73,3.91,3.91,0,0,1,1.34-.24,2.6,2.6,0,0,1,2,.66,2.81,2.81,0,0,1,.62,2V12c0,.17,0,.36,0,.55s0,.37.07.53h-1a3.31,3.31,0,0,1-.06-.48c0-.17,0-.32,0-.46h0a2.58,2.58,0,0,1-.82.79,2.43,2.43,0,0,1-1.24.31,3.26,3.26,0,0,1-.9-.12,2.17,2.17,0,0,1-.73-.36,1.65,1.65,0,0,1-.5-.58,1.72,1.72,0,0,1-.19-.8,1.76,1.76,0,0,1,.4-1.21,2.45,2.45,0,0,1,1-.65,4.35,4.35,0,0,1,1.28-.27c.45,0,.88,0,1.26,0h.4V9a1.29,1.29,0,0,0-.41-1,1.71,1.71,0,0,0-1.14-.34,3,3,0,0,0-1,.16,2.23,2.23,0,0,0-.86.52Zm3,2.44a3.68,3.68,0,0,0-1.59.28,1,1,0,0,0-.59.92.9.9,0,0,0,.4.83,1.85,1.85,0,0,0,1,.25,2,2,0,0,0,.79-.16,1.72,1.72,0,0,0,.57-.4,1.77,1.77,0,0,0,.34-.6,2.42,2.42,0,0,0,.14-.72v-.4Z"/><path class="cls-2" d="M173,8.35c0-.29,0-.56,0-.81s0-.47,0-.67h1c0,.16,0,.33,0,.5s0,.34,0,.52h0a1.72,1.72,0,0,1,.3-.44,2.17,2.17,0,0,1,.46-.38,2.44,2.44,0,0,1,1.32-.37l.21,0a.79.79,0,0,1,.22,0l-.07,1.06a1.73,1.73,0,0,0-.56-.08,1.56,1.56,0,0,0-1.39.62,2.91,2.91,0,0,0-.44,1.7v3h-1Z"/><path class="cls-2" d="M188.21,5.61a2.75,2.75,0,0,0-1.06-.86,3.12,3.12,0,0,0-1.3-.29,3.31,3.31,0,0,0-1.45.32,3.73,3.73,0,0,0-1.14.86,4,4,0,0,0-.75,1.26,4.14,4.14,0,0,0-.27,1.49,4.34,4.34,0,0,0,.27,1.54,4.17,4.17,0,0,0,.74,1.24,3.64,3.64,0,0,0,1.14.83,3.63,3.63,0,0,0,3,0,3.59,3.59,0,0,0,1.19-1l.84.7A4,4,0,0,1,187.88,13a5.07,5.07,0,0,1-2,.4A4.81,4.81,0,0,1,184,13a4.68,4.68,0,0,1-2.54-2.6,5.29,5.29,0,0,1-.37-2,5.2,5.2,0,0,1,.36-1.95,4.76,4.76,0,0,1,1-1.58,4.92,4.92,0,0,1,1.52-1.05,4.74,4.74,0,0,1,1.94-.39,5,5,0,0,1,1.84.35,3.43,3.43,0,0,1,1.49,1.13Z"/><path class="cls-2" d="M190.79,3h1V7.73h0a1.83,1.83,0,0,1,.29-.36A2.61,2.61,0,0,1,192.6,7a2.52,2.52,0,0,1,.58-.24,2.48,2.48,0,0,1,.68-.1,2.83,2.83,0,0,1,1.06.19,2,2,0,0,1,1.17,1.33,3.38,3.38,0,0,1,.14,1v3.86h-1V9.36a2,2,0,0,0-.34-1.24,1.3,1.3,0,0,0-1.08-.45,2,2,0,0,0-.88.17,1.59,1.59,0,0,0-.6.49,2.29,2.29,0,0,0-.34.76,3.76,3.76,0,0,0-.12,1v3h-1Z"/><path class="cls-2" d="M197.58,10a3.4,3.4,0,0,1,.25-1.34,3.08,3.08,0,0,1,.7-1A3,3,0,0,1,199.58,7a3.42,3.42,0,0,1,1.33-.25,3.47,3.47,0,0,1,1.34.25,3.1,3.1,0,0,1,1.05.67,3.21,3.21,0,0,1,.69,1,3.56,3.56,0,0,1,0,2.67,3.21,3.21,0,0,1-.69,1,3.12,3.12,0,0,1-1.05.68,3.67,3.67,0,0,1-1.34.24,3.61,3.61,0,0,1-1.33-.24,3,3,0,0,1-1.05-.68,3.08,3.08,0,0,1-.7-1A3.39,3.39,0,0,1,197.58,10Zm1.12,0a2.71,2.71,0,0,0,.15.91,2,2,0,0,0,.45.73,2.08,2.08,0,0,0,.7.5,2.24,2.24,0,0,0,.91.18,2.29,2.29,0,0,0,.92-.18,2.19,2.19,0,0,0,.7-.5,2.16,2.16,0,0,0,.44-.73,2.7,2.7,0,0,0,0-1.83,2.16,2.16,0,0,0-.44-.73,2.35,2.35,0,0,0-.7-.5,2.29,2.29,0,0,0-.92-.17,2.07,2.07,0,0,0-1.61.67,2,2,0,0,0-.45.73A2.73,2.73,0,0,0,198.7,10Z"/><path class="cls-2" d="M205.63,4.42a.77.77,0,0,1,.22-.53.74.74,0,0,1,.54-.23.71.71,0,0,1,.54.23.73.73,0,0,1,.22.53.72.72,0,0,1-.76.76.73.73,0,0,1-.54-.21A.71.71,0,0,1,205.63,4.42Zm.24,2.45h1v6.24h-1Z"/><path class="cls-2" d="M213.31,8.43a2.18,2.18,0,0,0-.72-.59,2,2,0,0,0-.85-.17,2.22,2.22,0,0,0-.92.17,1.78,1.78,0,0,0-.66.51,2.27,2.27,0,0,0-.39.74,2.83,2.83,0,0,0-.14.9,2.61,2.61,0,0,0,.58,1.64,2,2,0,0,0,.66.5,2.05,2.05,0,0,0,.87.18,1.86,1.86,0,0,0,1.59-.78l.77.74A2.77,2.77,0,0,1,213,13a3.67,3.67,0,0,1-2.61,0,2.9,2.9,0,0,1-1-.68,3.1,3.1,0,0,1-.65-1,3.56,3.56,0,0,1-.24-1.32,3.47,3.47,0,0,1,.24-1.31,2.89,2.89,0,0,1,.66-1,2.92,2.92,0,0,1,1-.69,3.44,3.44,0,0,1,1.31-.25,3.39,3.39,0,0,1,1.31.25,2.79,2.79,0,0,1,1.09.74Z"/><path class="cls-2" d="M220.87,12a3.16,3.16,0,0,1-1.22,1,3.93,3.93,0,0,1-1.55.29,3.27,3.27,0,0,1-1.32-.26,3.11,3.11,0,0,1-1-.7,3.22,3.22,0,0,1-.63-1,3.63,3.63,0,0,1-.22-1.28,3.58,3.58,0,0,1,.24-1.33,3,3,0,0,1,.67-1,2.93,2.93,0,0,1,1-.67,3.18,3.18,0,0,1,1.28-.25,3.29,3.29,0,0,1,1.2.22,2.69,2.69,0,0,1,.94.65,3,3,0,0,1,.61,1A4.25,4.25,0,0,1,221.1,10v.34h-5a2.24,2.24,0,0,0,.19.76,2.08,2.08,0,0,0,.44.64,2,2,0,0,0,.62.44,2.06,2.06,0,0,0,.79.16,2.51,2.51,0,0,0,1.15-.24,2.66,2.66,0,0,0,.84-.71ZM220,9.43a1.83,1.83,0,0,0-.52-1.29,1.9,1.9,0,0,0-1.36-.47,2.06,2.06,0,0,0-1.4.47,2,2,0,0,0-.64,1.29Z"/><path class="cls-2" d="M120.43,23.75h-1.36v-.88h1.36v-1.4a4.8,4.8,0,0,1,.1-1,2.29,2.29,0,0,1,.37-.82,1.7,1.7,0,0,1,.69-.54,2.5,2.5,0,0,1,1-.19,2.22,2.22,0,0,1,.43,0,1,1,0,0,1,.37.12l-.15.93a2,2,0,0,0-.7-.13A1.13,1.13,0,0,0,122,20a.9.9,0,0,0-.34.38,1.72,1.72,0,0,0-.13.6c0,.23,0,.48,0,.74v1.18H123v.88h-1.52v5.36h-1Z"/><path class="cls-2" d="M123.73,26a3.41,3.41,0,0,1,.26-1.34,3.21,3.21,0,0,1,.69-1,3.1,3.1,0,0,1,1-.67,3.67,3.67,0,0,1,1.34-.24,3.61,3.61,0,0,1,1.33.24,3,3,0,0,1,1,.67,3.08,3.08,0,0,1,.7,1A3.4,3.4,0,0,1,130.4,26a3.35,3.35,0,0,1-.25,1.33,3.08,3.08,0,0,1-.7,1,3,3,0,0,1-1,.68,3.61,3.61,0,0,1-1.33.24,3.67,3.67,0,0,1-1.34-.24,3.12,3.12,0,0,1-1-.68,3.21,3.21,0,0,1-.69-1A3.36,3.36,0,0,1,123.73,26Zm1.12,0a2.67,2.67,0,0,0,.16.91,2.16,2.16,0,0,0,.44.73,2.19,2.19,0,0,0,.7.5,2.29,2.29,0,0,0,.92.18,2.21,2.21,0,0,0,.91-.18,2.08,2.08,0,0,0,.7-.5,2,2,0,0,0,.45-.73,2.67,2.67,0,0,0,.15-.91,2.73,2.73,0,0,0-.15-.92,2,2,0,0,0-.45-.73,2.06,2.06,0,0,0-.7-.49,2.21,2.21,0,0,0-.91-.18,2.29,2.29,0,0,0-.92.18A2.06,2.06,0,0,0,125,25.07,2.73,2.73,0,0,0,124.85,26Z"/><path class="cls-2" d="M132,24.35c0-.29,0-.55,0-.8s0-.48,0-.68h1c0,.17,0,.33,0,.5s0,.35,0,.52h0a1.91,1.91,0,0,1,.3-.44,2.17,2.17,0,0,1,.46-.38,2.32,2.32,0,0,1,.6-.26,2.37,2.37,0,0,1,.72-.1h.22l.21.05-.07,1.06a1.73,1.73,0,0,0-.56-.08,1.56,1.56,0,0,0-1.39.62,2.91,2.91,0,0,0-.44,1.7v3h-1Z"/><path class="cls-2" d="M147.22,21.61a2.75,2.75,0,0,0-1.06-.86,3.11,3.11,0,0,0-1.3-.28,3.18,3.18,0,0,0-1.45.32,3.58,3.58,0,0,0-1.14.86,3.93,3.93,0,0,0-.75,1.25,4.17,4.17,0,0,0-.26,1.49,4.33,4.33,0,0,0,.26,1.54,4,4,0,0,0,.74,1.24,3.58,3.58,0,0,0,4.14.8,3.59,3.59,0,0,0,1.19-1l.84.7A4,4,0,0,1,146.89,29a5.07,5.07,0,0,1-2,.4A4.81,4.81,0,0,1,143,29a4.68,4.68,0,0,1-2.54-2.6,5.29,5.29,0,0,1-.36-2,5.2,5.2,0,0,1,.35-1.95,4.61,4.61,0,0,1,1-1.57,4.78,4.78,0,0,1,1.52-1.06,4.73,4.73,0,0,1,1.94-.38,5,5,0,0,1,1.84.34,3.38,3.38,0,0,1,1.49,1.14Z"/><path class="cls-2" d="M149.44,26a3.41,3.41,0,0,1,.26-1.34,3.06,3.06,0,0,1,.69-1,3,3,0,0,1,1.05-.67,3.67,3.67,0,0,1,1.34-.24,3.61,3.61,0,0,1,1.33.24,3,3,0,0,1,1,.67,3.08,3.08,0,0,1,.7,1,3.4,3.4,0,0,1,.25,1.34,3.35,3.35,0,0,1-.25,1.33,3.08,3.08,0,0,1-.7,1,3,3,0,0,1-1,.68,3.61,3.61,0,0,1-1.33.24,3.67,3.67,0,0,1-1.34-.24,3,3,0,0,1-1.05-.68,3.06,3.06,0,0,1-.69-1A3.36,3.36,0,0,1,149.44,26Zm1.12,0a2.45,2.45,0,0,0,.16.91,2.16,2.16,0,0,0,.44.73,2.19,2.19,0,0,0,.7.5,2.42,2.42,0,0,0,1.83,0,2.17,2.17,0,0,0,1.15-1.23A2.67,2.67,0,0,0,155,26a2.73,2.73,0,0,0-.15-.92,2.18,2.18,0,0,0-.45-.73,2.16,2.16,0,0,0-.7-.49,2.42,2.42,0,0,0-1.83,0,2.06,2.06,0,0,0-1.14,1.22A2.51,2.51,0,0,0,150.56,26Z"/><path class="cls-2" d="M157.72,24.35c0-.29,0-.55,0-.8s0-.48,0-.68h1c0,.17,0,.33,0,.5s0,.35,0,.52h0a1.91,1.91,0,0,1,.3-.44,2.17,2.17,0,0,1,.46-.38,2.32,2.32,0,0,1,.6-.26,2.37,2.37,0,0,1,.72-.1,2.6,2.6,0,0,1,.85.12,2.28,2.28,0,0,1,.56.31,1.64,1.64,0,0,1,.36.39c.08.13.15.26.2.36a2.94,2.94,0,0,1,.8-.87,2.05,2.05,0,0,1,1.18-.31,3.09,3.09,0,0,1,1.12.18,1.77,1.77,0,0,1,.73.52,2,2,0,0,1,.4.82,4.61,4.61,0,0,1,.12,1.09v3.79h-1V25.37a2.56,2.56,0,0,0-.07-.62,1.3,1.3,0,0,0-.24-.55,1.26,1.26,0,0,0-.46-.39,1.82,1.82,0,0,0-.75-.14,1.51,1.51,0,0,0-.63.13,1.67,1.67,0,0,0-.51.37,1.87,1.87,0,0,0-.35.58,2.29,2.29,0,0,0-.12.76v3.6h-1V25.57a2.92,2.92,0,0,0-.28-1.47,1,1,0,0,0-.92-.43,2,2,0,0,0-.88.17,1.59,1.59,0,0,0-.6.49,2.29,2.29,0,0,0-.34.76,3.76,3.76,0,0,0-.12,1v3h-1Z"/><path class="cls-2" d="M169.08,24.35c0-.29,0-.55,0-.8s0-.48,0-.68h1c0,.17,0,.33,0,.5s0,.35,0,.52h0a1.91,1.91,0,0,1,.3-.44,2.17,2.17,0,0,1,.46-.38,2.32,2.32,0,0,1,.6-.26,2.37,2.37,0,0,1,.72-.1,2.6,2.6,0,0,1,.85.12,2.28,2.28,0,0,1,.56.31,1.45,1.45,0,0,1,.36.39c.08.13.15.26.2.36a3.08,3.08,0,0,1,.8-.87,2.05,2.05,0,0,1,1.18-.31,3.06,3.06,0,0,1,1.12.18,1.77,1.77,0,0,1,.73.52,2,2,0,0,1,.4.82,4.61,4.61,0,0,1,.12,1.09v3.79h-1V25.37a2.56,2.56,0,0,0-.07-.62,1.3,1.3,0,0,0-.24-.55,1.26,1.26,0,0,0-.46-.39,1.82,1.82,0,0,0-.75-.14,1.51,1.51,0,0,0-.63.13,1.67,1.67,0,0,0-.51.37,1.87,1.87,0,0,0-.35.58,2.29,2.29,0,0,0-.12.76v3.6h-1V25.57A2.92,2.92,0,0,0,173,24.1a1,1,0,0,0-.92-.43,2,2,0,0,0-.88.17,1.59,1.59,0,0,0-.6.49,2.29,2.29,0,0,0-.34.76,3.76,3.76,0,0,0-.12,1v3h-1Z"/><path class="cls-2" d="M186,28a3.18,3.18,0,0,1-1.23,1,3.9,3.9,0,0,1-1.55.29,3.34,3.34,0,0,1-1.32-.26,3.11,3.11,0,0,1-1-.7,3.22,3.22,0,0,1-.63-1,3.87,3.87,0,0,1-.22-1.28,3.58,3.58,0,0,1,.24-1.33,3.21,3.21,0,0,1,.67-1,3,3,0,0,1,1-.67,3.39,3.39,0,0,1,1.28-.24,3.09,3.09,0,0,1,1.2.22,2.46,2.46,0,0,1,.94.64,2.75,2.75,0,0,1,.61,1,4.25,4.25,0,0,1,.21,1.38v.34h-5a2.25,2.25,0,0,0,.2.76,2.06,2.06,0,0,0,.43.64,2,2,0,0,0,.63.44,2,2,0,0,0,.78.16,2.48,2.48,0,0,0,1.15-.24,2.66,2.66,0,0,0,.84-.71Zm-.9-2.54a1.75,1.75,0,0,0-.52-1.28,1.85,1.85,0,0,0-1.36-.48,2,2,0,0,0-1.4.48,2.07,2.07,0,0,0-.64,1.28Z"/><path class="cls-2" d="M187.86,24.35c0-.29,0-.55,0-.8s0-.48,0-.68h1c0,.17,0,.33,0,.5s0,.35,0,.52h0a1.91,1.91,0,0,1,.3-.44,1.94,1.94,0,0,1,.46-.38,2.05,2.05,0,0,1,.6-.26,2.37,2.37,0,0,1,.72-.1h.21l.21.05-.06,1.06a1.77,1.77,0,0,0-.56-.08,1.58,1.58,0,0,0-1.4.62,2.91,2.91,0,0,0-.43,1.7v3h-1Z"/><path class="cls-2" d="M192.41,20.43a.73.73,0,0,1,.22-.54.7.7,0,0,1,.54-.22.73.73,0,0,1,.54.22.77.77,0,0,1,.22.54.77.77,0,0,1-1.31.54A.73.73,0,0,1,192.41,20.43Zm.24,2.44h1v6.24h-1Z"/><path class="cls-2" d="M200.19,24.43a2,2,0,0,0-.72-.58,2,2,0,0,0-.85-.18,2.22,2.22,0,0,0-.92.18,1.66,1.66,0,0,0-.66.5,2.1,2.1,0,0,0-.39.74,2.93,2.93,0,0,0-.14.9,2.61,2.61,0,0,0,.58,1.64,1.93,1.93,0,0,0,.66.5,2.05,2.05,0,0,0,.87.18,1.86,1.86,0,0,0,1.59-.78l.77.74a2.77,2.77,0,0,1-1.07.76,3.67,3.67,0,0,1-2.61,0,2.9,2.9,0,0,1-1-.68,3.1,3.1,0,0,1-.65-1,3.72,3.72,0,0,1,0-2.63,2.89,2.89,0,0,1,.66-1,3.06,3.06,0,0,1,1-.69,3.43,3.43,0,0,1,1.31-.24,3.58,3.58,0,0,1,1.31.24,2.79,2.79,0,0,1,1.09.74Z"/><path class="cls-2" d="M202.1,23.67a3,3,0,0,1,1.14-.73,3.9,3.9,0,0,1,1.34-.23,2.63,2.63,0,0,1,2,.65,2.82,2.82,0,0,1,.61,2V28a5.36,5.36,0,0,0,0,.55c0,.19,0,.37.07.53h-1a1.8,1.8,0,0,1-.06-.48c0-.17,0-.32,0-.46h0a2.34,2.34,0,0,1-2.05,1.1,3.26,3.26,0,0,1-.9-.12,2.08,2.08,0,0,1-.73-.36,1.65,1.65,0,0,1-.5-.58,1.58,1.58,0,0,1-.19-.8,1.72,1.72,0,0,1,.4-1.21,2.48,2.48,0,0,1,1-.65,4.77,4.77,0,0,1,1.28-.27c.46,0,.88-.05,1.26-.05h.4V25a1.28,1.28,0,0,0-.4-1,1.74,1.74,0,0,0-1.14-.34,3.12,3.12,0,0,0-1,.16,2.31,2.31,0,0,0-.86.52Zm3,2.44a3.67,3.67,0,0,0-1.58.28.93.93,0,0,0-.59.92.9.9,0,0,0,.39.83,2.06,2.06,0,0,0,1.78.09,1.63,1.63,0,0,0,.56-.4,1.79,1.79,0,0,0,.35-.6,2.42,2.42,0,0,0,.13-.72v-.4Z"/><path class="cls-2" d="M209.19,19h1V29.11h-1Z"/><path class="cls-2" d="M216.19,19.67h5.86v1h-4.74v3.12h4.4v1h-4.4v4.24h-1.12Z"/><path class="cls-2" d="M223.27,20.43a.77.77,0,0,1,.22-.54.73.73,0,0,1,.54-.22.7.7,0,0,1,.54.22.79.79,0,0,1,0,1.08.79.79,0,0,1-1.09,0A.7.7,0,0,1,223.27,20.43Zm.24,2.44h1v6.24h-1Z"/><path class="cls-2" d="M226.71,19h1V29.11h-1Z"/><path class="cls-2" d="M229.82,24.35c0-.29,0-.55,0-.8s0-.48,0-.68h1c0,.17,0,.33,0,.5s0,.35,0,.52h0a1.91,1.91,0,0,1,.3-.44,2.17,2.17,0,0,1,.46-.38,2.32,2.32,0,0,1,.6-.26,2.37,2.37,0,0,1,.72-.1,2.49,2.49,0,0,1,.84.12,2.18,2.18,0,0,1,.57.31,1.41,1.41,0,0,1,.35.39,3,3,0,0,1,.21.36,2.94,2.94,0,0,1,.8-.87,2,2,0,0,1,1.17-.31,3,3,0,0,1,1.12.18,1.74,1.74,0,0,1,.74.52,2.1,2.1,0,0,1,.4.82,4.61,4.61,0,0,1,.12,1.09v3.79h-1V25.37a2.56,2.56,0,0,0-.07-.62,1.3,1.3,0,0,0-.24-.55,1.22,1.22,0,0,0-.47-.39,1.74,1.74,0,0,0-.74-.14,1.51,1.51,0,0,0-.63.13,1.55,1.55,0,0,0-.51.37,1.87,1.87,0,0,0-.35.58,2.28,2.28,0,0,0-.13.76v3.6h-1V25.57a2.82,2.82,0,0,0-.28-1.47,1,1,0,0,0-.92-.43,2,2,0,0,0-.87.17,1.59,1.59,0,0,0-.6.49,2.31,2.31,0,0,0-.35.76,4.26,4.26,0,0,0-.11,1v3h-1Z"/><path class="cls-3" d="M52.9,1.47H46.27a.74.74,0,0,0-.76.75V29.91a.81.81,0,0,0,.76.78h6.46c3.39-.13,7-2.49,7.15-6V7.45C59.69,3.72,56.72,1.74,52.9,1.47ZM55,11.71V22.55c0,2.78-2.06,3.07-2.06,3.07-.79.17-2.28.58-2.65-.53V7.19c.37-1.11,1.86-.7,2.65-.53,0,0,2.1.28,2.06,3.07Z"/><path class="cls-3" d="M94,6.7c.22,0,2.2.24,2.4,9.19.06,3-.55,7.89-2.11,9.47a.93.93,0,0,1-.74.35.73.73,0,0,1-.55-.27c-1.23-1.27-2-5.23-1.9-10.1v-.08C91.13,10.32,92.35,6.71,94,6.7Zm-8.19,8.55c-.08,4.66.45,10.85,3.4,13.88A6.59,6.59,0,0,0,93.73,31,5.67,5.67,0,0,0,98,29.08c3.65-3.7,3.66-11.74,3.63-13.31-.08-3.57-.32-14.44-7.75-14.36-5,.05-8,5.07-8.13,13.77Z"/><path class="cls-3" d="M24.45,30a.7.7,0,0,1-.62.73H20.41a.77.77,0,0,1-.65-.73V9.64c.06-.22-.15-3.31-2.49-3.28a2.57,2.57,0,0,0-2.59,2.51s0,21.13,0,21.13a.7.7,0,0,1-.62.73h-3.6A.78.78,0,0,1,9.79,30s0-21.1,0-21.13A2.57,2.57,0,0,0,7.22,6.36c-2.35,0-2.56,3.06-2.5,3.28V30a.7.7,0,0,1-.62.74H.65A.78.78,0,0,1,0,30V7.66C.33,4.3,1.65,2.06,4.72,1.32a6.93,6.93,0,0,1,7.52,2.36,6.93,6.93,0,0,1,7.51-2.36c3.07.74,4.39,3,4.71,6.35Z"/><path class="cls-3" d="M33,17.68V8.4A2.08,2.08,0,0,1,35.1,6.54a2,2,0,0,1,1.4.57,1.31,1.31,0,0,1,.45.94s0,4.58,0,9.63ZM41.79,8a6.25,6.25,0,0,0-1.62-4.71,7.35,7.35,0,0,0-5.17-2,6.91,6.91,0,0,0-6.84,7.11V30a.77.77,0,0,0,.65.73h3.56A.7.7,0,0,0,33,30l0-8.35h4c0,2.85,0,8.35,0,8.35a.77.77,0,0,0,.65.73h3.59A.69.69,0,0,0,41.8,30Z"/><path class="cls-3" d="M68.38,2.24a.77.77,0,0,0-.65-.74H64.19a.7.7,0,0,0-.62.74V30a.77.77,0,0,0,.65.73h3.55a.69.69,0,0,0,.61-.73Z"/><path class="cls-3" d="M82.35,25.53a.7.7,0,0,1,.73.62v4c0,.3-.1.65-.47.65l-.18,0a11.13,11.13,0,0,1-8.2-4.3c-3.62-4.92-2.66-15.42-.77-19.24A10.66,10.66,0,0,1,82.3,1.46h0a.7.7,0,0,1,.74.62v4a.79.79,0,0,1-.74.66l0,0a5.3,5.3,0,0,0-4.1,2.87c-1.24,2.49-1.9,10.77.29,13.75a5.39,5.39,0,0,0,3.81,2.14Z"/><path class="cls-3" d="M105.1,1.78a2.78,2.78,0,0,1,1.38.37,2.54,2.54,0,0,1,1,1,2.8,2.8,0,0,1,0,2.8,2.67,2.67,0,0,1-1,1,2.82,2.82,0,0,1-1.4.37A2.78,2.78,0,0,1,103.71,7a2.67,2.67,0,0,1-1-1,2.78,2.78,0,0,1-.37-1.39,2.87,2.87,0,0,1,.38-1.41,2.54,2.54,0,0,1,1-1A2.74,2.74,0,0,1,105.1,1.78Zm0,.47a2.37,2.37,0,0,0-1.14.3,2.11,2.11,0,0,0-.88.87,2.34,2.34,0,0,0-.32,1.17,2.43,2.43,0,0,0,.31,1.16,2.18,2.18,0,0,0,.87.86,2.34,2.34,0,0,0,2.33,0,2.1,2.1,0,0,0,.86-.86,2.34,2.34,0,0,0,0-2.33,2.11,2.11,0,0,0-.88-.87A2.38,2.38,0,0,0,105.1,2.25Zm-1.22,3.89v-3h1a2.75,2.75,0,0,1,.77.08.76.76,0,0,1,.38.3.77.77,0,0,1,.14.44.78.78,0,0,1-.24.57.88.88,0,0,1-.62.28.82.82,0,0,1,.26.16,3.89,3.89,0,0,1,.44.6l.37.59h-.6l-.26-.48A2.38,2.38,0,0,0,105,5a.63.63,0,0,0-.39-.1h-.29V6.14Zm.48-1.7H105a.92.92,0,0,0,.58-.13.44.44,0,0,0,.08-.57.49.49,0,0,0-.21-.16,1.63,1.63,0,0,0-.48-.05h-.56Z"/></svg>