<svg id="Layer_1" data-name="Layer 1" xmlns="http://www.w3.org/2000/svg" viewBox="0 0 238.26 31"><defs><style>.cls-1{fill:#e09e10;}.cls-2{fill:#787878;}.cls-3{fill:#00467f;}</style></defs><title>Section-Logos</title><rect class="cls-1" x="113.64" y="1.43" width="0.45" height="29.23"/><path class="cls-2" d="M125.76,4.54h-2.85v7.65h-1V4.54h-2.84v-1h6.71Z"/><path class="cls-2" d="M126.79,3h.94V7.3h0A1.19,1.19,0,0,1,128,7a1.82,1.82,0,0,1,.4-.3,2.79,2.79,0,0,1,.53-.21,2.06,2.06,0,0,1,.62-.09,2.53,2.53,0,0,1,1,.17,1.76,1.76,0,0,1,.68.47,1.88,1.88,0,0,1,.39.74,3.14,3.14,0,0,1,.13.94v3.51h-1V8.78a1.81,1.81,0,0,0-.31-1.13,1.15,1.15,0,0,0-1-.41,1.92,1.92,0,0,0-.79.15,1.52,1.52,0,0,0-.55.45,2.17,2.17,0,0,0-.31.69,3.56,3.56,0,0,0-.11.89v2.77h-.94Z"/><path class="cls-2" d="M138.61,11.16a2.86,2.86,0,0,1-1.12.91,3.4,3.4,0,0,1-1.4.26,3.11,3.11,0,0,1-1.21-.23,2.78,2.78,0,0,1-.9-.64,2.68,2.68,0,0,1-.57-1,3.41,3.41,0,0,1-.2-1.16,3.18,3.18,0,0,1,.22-1.21,2.9,2.9,0,0,1,.6-1,2.84,2.84,0,0,1,.93-.61,3.12,3.12,0,0,1,2.25,0,2.34,2.34,0,0,1,.86.58,2.65,2.65,0,0,1,.55.94,3.78,3.78,0,0,1,.2,1.26v.3h-4.59a1.94,1.94,0,0,0,.17.7,2.39,2.39,0,0,0,.4.58,1.61,1.61,0,0,0,.57.39,1.72,1.72,0,0,0,.72.15,2.19,2.19,0,0,0,1-.22,2.28,2.28,0,0,0,.76-.64Zm-.81-2.32a1.65,1.65,0,0,0-.48-1.17,1.69,1.69,0,0,0-1.23-.43,1.73,1.73,0,0,0-1.86,1.6Z"/><path class="cls-2" d="M149.85,5.37a2.52,2.52,0,0,0-1-.79,2.86,2.86,0,0,0-1.19-.26,3,3,0,0,0-1.31.29,3.38,3.38,0,0,0-1,.79,3.42,3.42,0,0,0-.68,1.14,3.84,3.84,0,0,0-.24,1.35,4,4,0,0,0,.24,1.4,3.36,3.36,0,0,0,.67,1.13,3.25,3.25,0,0,0,1,.76,3.33,3.33,0,0,0,2.74,0,3.26,3.26,0,0,0,1.08-.89l.77.64A3.5,3.5,0,0,1,149.55,12a4.37,4.37,0,0,1-1.85.37,4.47,4.47,0,0,1-1.72-.34,4.2,4.2,0,0,1-2.31-2.37,4.63,4.63,0,0,1-.34-1.81,4.72,4.72,0,0,1,.33-1.77,4.23,4.23,0,0,1,2.28-2.39,4.26,4.26,0,0,1,1.76-.36,4.52,4.52,0,0,1,1.68.32,3.11,3.11,0,0,1,1.36,1Z"/><path class="cls-2" d="M152.29,3h1v9.18h-1Z"/><path class="cls-2" d="M160.19,11.16a2.91,2.91,0,0,1-1.11.91,3.48,3.48,0,0,1-1.41.26,3,3,0,0,1-1.2-.23,2.72,2.72,0,0,1-.91-.64,3,3,0,0,1-.57-1,3.45,3.45,0,0,1,0-2.37,2.93,2.93,0,0,1,.61-1,2.79,2.79,0,0,1,.92-.61,3,3,0,0,1,1.17-.22,3,3,0,0,1,1.09.2,2.3,2.3,0,0,1,.85.58,2.67,2.67,0,0,1,.56.94,3.79,3.79,0,0,1,.19,1.26v.3h-4.59a2.19,2.19,0,0,0,.18.7,2.11,2.11,0,0,0,.39.58,1.82,1.82,0,0,0,1.29.54,2.19,2.19,0,0,0,1-.22,2.31,2.31,0,0,0,.77-.64Zm-.81-2.32a1.6,1.6,0,0,0-.47-1.17,1.7,1.7,0,0,0-1.24-.43,1.81,1.81,0,0,0-1.27.43,1.83,1.83,0,0,0-.59,1.17Z"/><path class="cls-2" d="M161.8,7.24a2.59,2.59,0,0,1,1-.67,3.64,3.64,0,0,1,1.22-.21,2.4,2.4,0,0,1,1.82.6,2.55,2.55,0,0,1,.55,1.8V11.2a4.49,4.49,0,0,0,0,.51c0,.17,0,.33.06.48h-.91a2.79,2.79,0,0,1-.06-.43v-.42h0a2.1,2.1,0,0,1-.74.71,2.13,2.13,0,0,1-1.13.28,2.65,2.65,0,0,1-.81-.11,2,2,0,0,1-.67-.32,1.58,1.58,0,0,1-.46-.53,1.53,1.53,0,0,1-.17-.72,1.57,1.57,0,0,1,.37-1.11,2.14,2.14,0,0,1,.9-.59A4.76,4.76,0,0,1,164,8.7c.41,0,.8,0,1.14,0h.37V8.49a1.18,1.18,0,0,0-.37-.94,1.57,1.57,0,0,0-1-.31,2.74,2.74,0,0,0-.9.15,2.16,2.16,0,0,0-.79.46Zm2.74,2.22a3.35,3.35,0,0,0-1.44.25.87.87,0,0,0-.54.84.82.82,0,0,0,.36.76,1.66,1.66,0,0,0,.89.22,1.6,1.6,0,0,0,.72-.14,1.41,1.41,0,0,0,.52-.37,1.61,1.61,0,0,0,.32-.54,2.28,2.28,0,0,0,.12-.66V9.46Z"/><path class="cls-2" d="M168.17,7.85c0-.26,0-.5,0-.72s0-.44,0-.62h.9c0,.15,0,.3,0,.46s0,.31,0,.47h0a1.41,1.41,0,0,1,.27-.4,2.44,2.44,0,0,1,.42-.35,2.13,2.13,0,0,1,.55-.24,2.27,2.27,0,0,1,.65-.09h.2l.19,0-.06,1a1.7,1.7,0,0,0-.51-.07,1.45,1.45,0,0,0-1.27.56,2.69,2.69,0,0,0-.39,1.55v2.77h-1Z"/><path class="cls-2" d="M182,5.37a2.52,2.52,0,0,0-1-.79,2.9,2.9,0,0,0-1.19-.26,3,3,0,0,0-1.32.29,3.33,3.33,0,0,0-1,.79,3.27,3.27,0,0,0-.68,1.14,3.63,3.63,0,0,0-.25,1.35,3.78,3.78,0,0,0,.25,1.4,3.36,3.36,0,0,0,.67,1.13,3.25,3.25,0,0,0,1,.76,3.33,3.33,0,0,0,2.74,0,3.26,3.26,0,0,0,1.08-.89l.76.64a3.41,3.41,0,0,1-1.4,1.14,4.37,4.37,0,0,1-1.85.37,4.47,4.47,0,0,1-1.72-.34,4.22,4.22,0,0,1-1.39-.94,4.37,4.37,0,0,1-.93-1.43,4.82,4.82,0,0,1-.33-1.81,4.92,4.92,0,0,1,.32-1.77,4.32,4.32,0,0,1,.91-1.43,4.18,4.18,0,0,1,1.38-1,4.23,4.23,0,0,1,1.76-.36,4.6,4.6,0,0,1,1.68.32,3.11,3.11,0,0,1,1.36,1Z"/><path class="cls-2" d="M184.36,3h.95V7.3h0A1.34,1.34,0,0,1,185.6,7a2.17,2.17,0,0,1,.41-.3,2.55,2.55,0,0,1,.53-.21,2.06,2.06,0,0,1,.62-.09,2.53,2.53,0,0,1,1,.17,1.84,1.84,0,0,1,.68.47,2.18,2.18,0,0,1,.39.74,3.14,3.14,0,0,1,.13.94v3.51h-.95V8.78a1.81,1.81,0,0,0-.31-1.13,1.16,1.16,0,0,0-1-.41,1.89,1.89,0,0,0-.79.15,1.44,1.44,0,0,0-.55.45,2.19,2.19,0,0,0-.32.69,4.11,4.11,0,0,0-.1.89v2.77h-.95Z"/><path class="cls-2" d="M190.54,9.35a3.19,3.19,0,0,1,.23-1.22,3.07,3.07,0,0,1,.64-.94,2.82,2.82,0,0,1,1-.61,3.27,3.27,0,0,1,1.22-.22,3.18,3.18,0,0,1,1.21.22,3,3,0,0,1,1,.61,2.88,2.88,0,0,1,.63.94,3,3,0,0,1,.23,1.22,3,3,0,0,1-.23,1.21,2.68,2.68,0,0,1-.63.94,2.81,2.81,0,0,1-1,.61,3.18,3.18,0,0,1-1.21.22,3.27,3.27,0,0,1-1.22-.22,2.68,2.68,0,0,1-1-.61,2.85,2.85,0,0,1-.64-.94A3.14,3.14,0,0,1,190.54,9.35Zm1,0a2.49,2.49,0,0,0,.14.83,2.08,2.08,0,0,0,.41.67,2,2,0,0,0,.64.45,2.15,2.15,0,0,0,.83.16,2.19,2.19,0,0,0,.83-.16,2,2,0,0,0,.64-.45,1.9,1.9,0,0,0,.4-.67,2.26,2.26,0,0,0,.14-.83,2.23,2.23,0,0,0-.14-.83,1.81,1.81,0,0,0-.4-.67,2,2,0,0,0-.64-.45,2,2,0,0,0-.83-.16,2,2,0,0,0-.83.16,2,2,0,0,0-.64.45,2,2,0,0,0-.41.67A2.45,2.45,0,0,0,191.56,9.35Z"/><path class="cls-2" d="M197.88,4.29a.66.66,0,0,1,.2-.49.64.64,0,0,1,.49-.21.65.65,0,0,1,.49.21.71.71,0,0,1,0,1,.73.73,0,0,1-1,0A.66.66,0,0,1,197.88,4.29Zm.21,2.22H199v5.68h-.95Z"/><path class="cls-2" d="M204.87,7.93a1.8,1.8,0,0,0-.66-.53,1.77,1.77,0,0,0-.77-.16,2,2,0,0,0-.84.16,1.53,1.53,0,0,0-.6.45,2,2,0,0,0-.36.68,2.71,2.71,0,0,0-.12.82,2.25,2.25,0,0,0,.14.82,2,2,0,0,0,.39.67,1.72,1.72,0,0,0,.6.46,2,2,0,0,0,.79.16,1.69,1.69,0,0,0,1.44-.7l.7.66a2.28,2.28,0,0,1-1,.69,3.08,3.08,0,0,1-1.17.22,3.18,3.18,0,0,1-1.21-.22,2.69,2.69,0,0,1-.93-.61,3,3,0,0,1-.59-.95,3.36,3.36,0,0,1-.21-1.2,3.27,3.27,0,0,1,.21-1.19,2.75,2.75,0,0,1,.6-1,2.71,2.71,0,0,1,.93-.62,3.09,3.09,0,0,1,1.2-.23,3.18,3.18,0,0,1,1.19.22,2.59,2.59,0,0,1,1,.68Z"/><path class="cls-2" d="M211.75,11.16a2.86,2.86,0,0,1-1.12.91,3.4,3.4,0,0,1-1.4.26A3.11,3.11,0,0,1,208,12.1a2.78,2.78,0,0,1-.9-.64,2.68,2.68,0,0,1-.57-1,3.41,3.41,0,0,1-.2-1.16,3.18,3.18,0,0,1,.22-1.21,2.9,2.9,0,0,1,.6-1,2.84,2.84,0,0,1,.93-.61,2.92,2.92,0,0,1,1.16-.22,3,3,0,0,1,1.1.2,2.38,2.38,0,0,1,.85.58,2.65,2.65,0,0,1,.55.94,3.78,3.78,0,0,1,.2,1.26v.3h-4.59a1.94,1.94,0,0,0,.17.7,2.39,2.39,0,0,0,.4.58,1.61,1.61,0,0,0,.57.39,1.72,1.72,0,0,0,.72.15,2.19,2.19,0,0,0,1-.22,2.28,2.28,0,0,0,.76-.64Zm-.81-2.32a1.65,1.65,0,0,0-.48-1.17,1.69,1.69,0,0,0-1.23-.43,1.73,1.73,0,0,0-1.86,1.6Z"/><path class="cls-2" d="M217.29,7.31h-1.24v-.8h1.24V5.23a4.65,4.65,0,0,1,.09-1,2,2,0,0,1,.34-.75,1.59,1.59,0,0,1,.62-.49,2.28,2.28,0,0,1,1-.18,2.87,2.87,0,0,1,.39,0A1.23,1.23,0,0,1,220,3l-.13.85a2,2,0,0,0-.65-.12,1,1,0,0,0-.57.13.81.81,0,0,0-.31.35,1.43,1.43,0,0,0-.12.54c0,.21,0,.44,0,.68V6.51h1.39v.8h-1.39v4.88h-.94Z"/><path class="cls-2" d="M220.3,9.35a3,3,0,0,1,.23-1.22,2.88,2.88,0,0,1,.63-.94,3,3,0,0,1,1-.61,3.18,3.18,0,0,1,1.21-.22,3.27,3.27,0,0,1,1.22.22,2.82,2.82,0,0,1,.95.61,3.07,3.07,0,0,1,.64.94,3.19,3.19,0,0,1,.23,1.22,3.14,3.14,0,0,1-.23,1.21,2.85,2.85,0,0,1-.64.94,2.68,2.68,0,0,1-.95.61,3.27,3.27,0,0,1-1.22.22,3.18,3.18,0,0,1-1.21-.22,2.81,2.81,0,0,1-1-.61,2.68,2.68,0,0,1-.63-.94A3,3,0,0,1,220.3,9.35Zm1,0a2.26,2.26,0,0,0,.14.83,1.9,1.9,0,0,0,.4.67,2,2,0,0,0,.64.45,2.19,2.19,0,0,0,.83.16,2.15,2.15,0,0,0,.83-.16,2,2,0,0,0,.64-.45,2.08,2.08,0,0,0,.41-.67,2.49,2.49,0,0,0,.14-.83,2.45,2.45,0,0,0-.14-.83,2,2,0,0,0-.41-.67,2,2,0,0,0-.64-.45,2,2,0,0,0-.83-.16,2,2,0,0,0-.83.16,2,2,0,0,0-.64.45,1.81,1.81,0,0,0-.4.67A2.23,2.23,0,0,0,221.32,9.35Z"/><path class="cls-2" d="M227.84,7.85q0-.39,0-.72c0-.23,0-.44,0-.62h.9c0,.15,0,.3,0,.46s0,.31,0,.47h0A1.71,1.71,0,0,1,229,7a1.86,1.86,0,0,1,.42-.35,2.21,2.21,0,0,1,.54-.24,2.29,2.29,0,0,1,.66-.09h.19l.2,0-.06,1a1.79,1.79,0,0,0-.51-.07,1.44,1.44,0,0,0-1.27.56,2.62,2.62,0,0,0-.4,1.55v2.77h-.94Z"/><path class="cls-2" d="M124.07,19.68a1.46,1.46,0,0,0-.68-.6,2.13,2.13,0,0,0-.89-.19,3.07,3.07,0,0,0-.67.08,2.18,2.18,0,0,0-.58.26,1.14,1.14,0,0,0-.42.45,1.23,1.23,0,0,0-.16.65,1.38,1.38,0,0,0,.09.52,1.14,1.14,0,0,0,.3.41,2.17,2.17,0,0,0,.56.34,7.42,7.42,0,0,0,.86.31c.33.11.65.22,1,.34a3.49,3.49,0,0,1,.83.46,2,2,0,0,1,.57.7,2.68,2.68,0,0,1,0,2.17,2.43,2.43,0,0,1-.68.78,2.85,2.85,0,0,1-1,.46A4.28,4.28,0,0,1,122,27a4.74,4.74,0,0,1-.75-.06,4.38,4.38,0,0,1-.73-.21,3,3,0,0,1-.65-.36,2.33,2.33,0,0,1-.52-.56l.88-.71a1.76,1.76,0,0,0,.77.71,2.3,2.3,0,0,0,1.06.25,2.51,2.51,0,0,0,.66-.1,1.86,1.86,0,0,0,.6-.29,1.48,1.48,0,0,0,.44-.46,1.26,1.26,0,0,0,.17-.65,1.53,1.53,0,0,0-.13-.65,1.23,1.23,0,0,0-.42-.43,2.86,2.86,0,0,0-.7-.32l-1-.34a6.55,6.55,0,0,1-.85-.34,2.49,2.49,0,0,1-.67-.46,1.93,1.93,0,0,1-.45-.66,2.28,2.28,0,0,1-.16-.91,2.32,2.32,0,0,1,.24-1.08,2.21,2.21,0,0,1,.65-.77,3.07,3.07,0,0,1,.94-.47,3.6,3.6,0,0,1,1.09-.16,3.75,3.75,0,0,1,1.33.23,2.67,2.67,0,0,1,1.08.78Z"/><path class="cls-2" d="M126.5,21.8a2.61,2.61,0,0,1,1-.66,3.68,3.68,0,0,1,1.22-.21,2.41,2.41,0,0,1,1.82.59,2.53,2.53,0,0,1,.56,1.81v2.44a4.63,4.63,0,0,0,0,.51,3.5,3.5,0,0,0,.06.48h-.91a2.75,2.75,0,0,1-.06-.44v-.41h0a2.1,2.1,0,0,1-.74.71,2.15,2.15,0,0,1-1.13.28,3.12,3.12,0,0,1-.82-.11,2,2,0,0,1-.66-.32,1.56,1.56,0,0,1-.46-.53,1.75,1.75,0,0,1,.2-1.83,2.16,2.16,0,0,1,.9-.6,4.34,4.34,0,0,1,1.17-.24c.41,0,.79-.05,1.14-.05h.37v-.17a1.17,1.17,0,0,0-.37-.93,1.58,1.58,0,0,0-1-.32,2.85,2.85,0,0,0-.91.15,2.39,2.39,0,0,0-.78.47ZM129.24,24a3.42,3.42,0,0,0-1.45.26.87.87,0,0,0-.53.84.83.83,0,0,0,.36.76,1.63,1.63,0,0,0,.89.22,1.74,1.74,0,0,0,.72-.14,1.53,1.53,0,0,0,.52-.37,1.61,1.61,0,0,0,.32-.54,2.41,2.41,0,0,0,.12-.66V24Z"/><path class="cls-2" d="M133.35,21.88h-1.23v-.81h1.23V19.8a4.54,4.54,0,0,1,.1-.95,2,2,0,0,1,.34-.75,1.52,1.52,0,0,1,.62-.49,2.28,2.28,0,0,1,1-.18,1.84,1.84,0,0,1,.39,0,1,1,0,0,1,.34.11l-.14.85a1.9,1.9,0,0,0-.64-.12,1.15,1.15,0,0,0-.57.12.83.83,0,0,0-.31.36,1.43,1.43,0,0,0-.12.54c0,.21,0,.43,0,.68v1.06h1.39v.81H134.3v4.88h-1Z"/><path class="cls-2" d="M141.77,25.72a2.87,2.87,0,0,1-1.12.92,3.58,3.58,0,0,1-1.41.26,2.92,2.92,0,0,1-1.2-.24,2.56,2.56,0,0,1-.9-.63,2.77,2.77,0,0,1-.57-1,3.2,3.2,0,0,1-.2-1.17,3.36,3.36,0,0,1,.21-1.2,2.82,2.82,0,0,1,.61-.95,2.74,2.74,0,0,1,.92-.61,3,3,0,0,1,1.17-.22,2.78,2.78,0,0,1,1.09.2,2.42,2.42,0,0,1,.86.58,2.65,2.65,0,0,1,.55.94A3.69,3.69,0,0,1,142,23.9v.31h-4.59a2.07,2.07,0,0,0,.18.69,1.87,1.87,0,0,0,.4.59,1.92,1.92,0,0,0,.57.39,1.64,1.64,0,0,0,.71.15,2.39,2.39,0,0,0,1-.22,2.42,2.42,0,0,0,.76-.65ZM141,23.4a1.6,1.6,0,0,0-.47-1.16,1.71,1.71,0,0,0-1.24-.44,1.77,1.77,0,0,0-1.86,1.6Z"/><path class="cls-2" d="M146.55,21.88h-1.68v2.84c0,.18,0,.35,0,.51a1,1,0,0,0,.09.41.64.64,0,0,0,.26.28.9.9,0,0,0,.48.11,2.18,2.18,0,0,0,.43-.05,1.44,1.44,0,0,0,.41-.15l0,.86a1.79,1.79,0,0,1-.54.16,3.88,3.88,0,0,1-.57,0,2,2,0,0,1-.81-.13,1.12,1.12,0,0,1-.47-.38,1.35,1.35,0,0,1-.23-.6,6.3,6.3,0,0,1,0-.79V21.88h-1.24v-.81h1.24V19.46h.94v1.61h1.68Z"/><path class="cls-2" d="M149.8,28.05a6.11,6.11,0,0,1-.29.67,2.78,2.78,0,0,1-.37.51,1.34,1.34,0,0,1-.51.32,1.94,1.94,0,0,1-.72.12l-.43,0a1,1,0,0,1-.42-.12l.12-.82a1.67,1.67,0,0,0,.3.08h.37a.85.85,0,0,0,.68-.25,2.53,2.53,0,0,0,.38-.68l.38-1.07-2.35-5.72H148l1.76,4.46h0l1.69-4.46h1Z"/><path class="cls-2" d="M162.08,25.52a4.61,4.61,0,0,1-1.12,1,2.77,2.77,0,0,1-1.46.36,3.28,3.28,0,0,1-1-.16,2.63,2.63,0,0,1-.87-.48,2.36,2.36,0,0,1-.59-.77,2.34,2.34,0,0,1-.23-1,2.23,2.23,0,0,1,.15-.83,2.2,2.2,0,0,1,.42-.69,2.87,2.87,0,0,1,.6-.55,4.88,4.88,0,0,1,.74-.42,4.72,4.72,0,0,1-.73-.9,2,2,0,0,1-.3-1.09,1.86,1.86,0,0,1,.18-.84,1.75,1.75,0,0,1,.48-.62,2.21,2.21,0,0,1,.71-.38,2.91,2.91,0,0,1,.85-.13,2.76,2.76,0,0,1,.82.12,2.26,2.26,0,0,1,.69.36,1.74,1.74,0,0,1,.47.6,2,2,0,0,1,.17.83,1.6,1.6,0,0,1-.17.73,2.31,2.31,0,0,1-.42.6,3.93,3.93,0,0,1-.59.47,6.11,6.11,0,0,1-.65.38L162,24l1.15-1.93h1.15l-1.65,2.65,2,2h-1.4Zm-2.77-2.94a6.05,6.05,0,0,0-.55.32,2.68,2.68,0,0,0-.48.4,1.72,1.72,0,0,0-.36.49,1.6,1.6,0,0,0-.13.62,1.71,1.71,0,0,0,.13.65,1.67,1.67,0,0,0,.37.51,1.93,1.93,0,0,0,.53.34,1.78,1.78,0,0,0,.65.12,2,2,0,0,0,1.12-.36,3.23,3.23,0,0,0,.45-.38q.21-.21.42-.45Zm.25-1.11c.17-.08.33-.18.5-.27a3.17,3.17,0,0,0,.46-.33,1.58,1.58,0,0,0,.34-.43,1.13,1.13,0,0,0,.14-.56.91.91,0,0,0-.33-.74,1.19,1.19,0,0,0-.77-.26,1.27,1.27,0,0,0-.87.31,1,1,0,0,0-.36.84,1.13,1.13,0,0,0,.18.63,4,4,0,0,0,.41.5Z"/><path class="cls-2" d="M173.33,19.68a1.46,1.46,0,0,0-.68-.6,2.09,2.09,0,0,0-.89-.19,2.91,2.91,0,0,0-.66.08,2.11,2.11,0,0,0-.59.26,1.14,1.14,0,0,0-.42.45,1.23,1.23,0,0,0-.16.65,1.38,1.38,0,0,0,.09.52,1.14,1.14,0,0,0,.3.41,2.36,2.36,0,0,0,.56.34,7.42,7.42,0,0,0,.86.31c.33.11.65.22,1,.34a3.3,3.3,0,0,1,.83.46,2,2,0,0,1,.57.7,2.68,2.68,0,0,1,0,2.17,2.43,2.43,0,0,1-.68.78,2.85,2.85,0,0,1-1,.46,4.28,4.28,0,0,1-1.13.15,4.74,4.74,0,0,1-.75-.06,4.68,4.68,0,0,1-.73-.21,2.7,2.7,0,0,1-.64-.36,2.18,2.18,0,0,1-.53-.56l.88-.71a1.76,1.76,0,0,0,.77.71,2.33,2.33,0,0,0,1.06.25,2.51,2.51,0,0,0,.66-.1,1.76,1.76,0,0,0,.6-.29,1.48,1.48,0,0,0,.44-.46,1.26,1.26,0,0,0,.17-.65,1.39,1.39,0,0,0-.13-.65,1.23,1.23,0,0,0-.42-.43,2.86,2.86,0,0,0-.7-.32l-1-.34a6.55,6.55,0,0,1-.85-.34,2.65,2.65,0,0,1-.67-.46,1.93,1.93,0,0,1-.45-.66,2.28,2.28,0,0,1-.16-.91,2.32,2.32,0,0,1,.24-1.08,2.14,2.14,0,0,1,.66-.77,2.91,2.91,0,0,1,.93-.47,3.6,3.6,0,0,1,1.09-.16,3.75,3.75,0,0,1,1.33.23,2.67,2.67,0,0,1,1.08.78Z"/><path class="cls-2" d="M180.9,25.72a2.85,2.85,0,0,1-1.11.92,3.65,3.65,0,0,1-1.41.26,2.86,2.86,0,0,1-1.2-.24,2.7,2.7,0,0,1-.91-.63,3.12,3.12,0,0,1-.57-1,3.42,3.42,0,0,1-.2-1.17,3.37,3.37,0,0,1,.22-1.2,2.82,2.82,0,0,1,.61-.95,2.64,2.64,0,0,1,.92-.61,3,3,0,0,1,1.17-.22,2.78,2.78,0,0,1,1.09.2,2.3,2.3,0,0,1,.85.58,2.67,2.67,0,0,1,.56.94,3.69,3.69,0,0,1,.19,1.25v.31h-4.59a2.07,2.07,0,0,0,.18.69,2,2,0,0,0,.39.59,2.06,2.06,0,0,0,.57.39,1.72,1.72,0,0,0,.72.15,2.32,2.32,0,0,0,1-.22,2.35,2.35,0,0,0,.77-.65Zm-.81-2.32a1.6,1.6,0,0,0-.47-1.16,1.71,1.71,0,0,0-1.24-.44,1.82,1.82,0,0,0-1.27.44,1.83,1.83,0,0,0-.59,1.16Z"/><path class="cls-2" d="M186.62,22.49A1.94,1.94,0,0,0,186,22a1.85,1.85,0,0,0-.78-.17,2,2,0,0,0-.84.17,1.69,1.69,0,0,0-.6.45,2,2,0,0,0-.36.68,2.64,2.64,0,0,0-.12.81,2.39,2.39,0,0,0,.14.82,2.08,2.08,0,0,0,.39.68,1.89,1.89,0,0,0,.6.45,1.86,1.86,0,0,0,.79.17,1.68,1.68,0,0,0,1.44-.71l.71.67a2.41,2.41,0,0,1-1,.69,3.13,3.13,0,0,1-1.18.22,3.09,3.09,0,0,1-1.2-.22,2.42,2.42,0,0,1-.93-.62,2.86,2.86,0,0,1-.6-.94,3.53,3.53,0,0,1,0-2.4,3,3,0,0,1,.61-.94,2.6,2.6,0,0,1,.92-.63,3.09,3.09,0,0,1,1.2-.22,3.23,3.23,0,0,1,1.2.22,2.63,2.63,0,0,1,1,.68Z"/><path class="cls-2" d="M193.38,25.41c0,.26,0,.5,0,.73s0,.43,0,.62h-.9c0-.16,0-.31,0-.47s0-.31,0-.47h0a1.71,1.71,0,0,1-.28.4,1.63,1.63,0,0,1-.42.35,2.21,2.21,0,0,1-.54.24,2.29,2.29,0,0,1-.66.09,2.53,2.53,0,0,1-1-.17,1.84,1.84,0,0,1-.68-.47,1.81,1.81,0,0,1-.39-.74,3.1,3.1,0,0,1-.13-.94V21.07h.95v3.42a1.8,1.8,0,0,0,.31,1.12,1.16,1.16,0,0,0,1,.42,1.92,1.92,0,0,0,.79-.16,1.52,1.52,0,0,0,.55-.45,1.82,1.82,0,0,0,.31-.69,3.5,3.5,0,0,0,.11-.89V21.07h.94Z"/><path class="cls-2" d="M195.18,22.42c0-.26,0-.5,0-.73s0-.43,0-.62h.9c0,.16,0,.31,0,.47s0,.31,0,.47h0a1.41,1.41,0,0,1,.27-.4,2.06,2.06,0,0,1,.42-.35,2.13,2.13,0,0,1,.55-.24,2.27,2.27,0,0,1,.65-.09h.2a.67.67,0,0,1,.19,0l-.06,1a1.7,1.7,0,0,0-.51-.07,1.43,1.43,0,0,0-1.27.56,2.69,2.69,0,0,0-.39,1.55v2.77h-.95Z"/><path class="cls-2" d="M199.32,18.85a.67.67,0,0,1,.2-.48.65.65,0,0,1,.49-.21.7.7,0,0,1,.69.69.71.71,0,0,1-1.19.5A.72.72,0,0,1,199.32,18.85Zm.22,2.22h1v5.69h-1Z"/><path class="cls-2" d="M205.47,21.88H203.8v2.84c0,.18,0,.35,0,.51a1,1,0,0,0,.1.41.62.62,0,0,0,.25.28,1,1,0,0,0,.49.11,2,2,0,0,0,.42-.05,1.5,1.5,0,0,0,.42-.15l0,.86a1.79,1.79,0,0,1-.54.16,3.75,3.75,0,0,1-.56,0,2,2,0,0,1-.81-.13,1.09,1.09,0,0,1-.48-.38,1.34,1.34,0,0,1-.22-.6,4.79,4.79,0,0,1-.06-.79V21.88h-1.24v-.81h1.24V19.46h1v1.61h1.67Z"/><path class="cls-2" d="M208.73,28.05c-.1.25-.2.47-.3.67a2.34,2.34,0,0,1-.36.51,1.52,1.52,0,0,1-.51.32,2,2,0,0,1-.73.12l-.43,0a1,1,0,0,1-.42-.12l.13-.82a1.32,1.32,0,0,0,.3.08h.36a.83.83,0,0,0,.68-.25,2.29,2.29,0,0,0,.38-.68l.39-1.07-2.36-5.72H207l1.76,4.46h0l1.69-4.46h1Z"/><path class="cls-2" d="M216,18.16h5.32v.95h-4.3V22h4v.94h-4v3.87h-1Z"/><path class="cls-2" d="M222.48,18.85a.67.67,0,0,1,.2-.48.69.69,0,0,1,1,0,.67.67,0,0,1,.2.48.69.69,0,0,1-.2.5.66.66,0,0,1-.5.19.66.66,0,0,1-.49-.19A.69.69,0,0,1,222.48,18.85Zm.22,2.22h1v5.69h-1Z"/><path class="cls-2" d="M225.61,17.58h.95v9.18h-.95Z"/><path class="cls-2" d="M228.44,22.42c0-.26,0-.5,0-.73s0-.43,0-.62h.9c0,.16,0,.31,0,.47s0,.31,0,.47h0a1.66,1.66,0,0,1,.27-.4,2.06,2.06,0,0,1,.42-.35,2.3,2.3,0,0,1,1.2-.33A2.48,2.48,0,0,1,232,21a2.05,2.05,0,0,1,.51.28,1.29,1.29,0,0,1,.32.35c.08.13.14.24.19.34a2.58,2.58,0,0,1,.73-.8,1.83,1.83,0,0,1,1.07-.28,2.8,2.8,0,0,1,1,.16,1.55,1.55,0,0,1,.66.48,1.76,1.76,0,0,1,.37.75,4.22,4.22,0,0,1,.11,1v3.45h-1v-3.4a2.62,2.62,0,0,0-.06-.57,1.2,1.2,0,0,0-.22-.5,1,1,0,0,0-.42-.35,1.52,1.52,0,0,0-.68-.14,1.35,1.35,0,0,0-.57.12,1.45,1.45,0,0,0-.47.34,1.87,1.87,0,0,0-.32.53,2.17,2.17,0,0,0-.11.69v3.28h-.95V23.54A2.59,2.59,0,0,0,232,22.2a.91.91,0,0,0-.84-.4,2,2,0,0,0-.8.16,1.48,1.48,0,0,0-.54.45,2,2,0,0,0-.32.69,3.51,3.51,0,0,0-.1.89v2.77h-.95Z"/><path class="cls-3" d="M52.9,1.47H46.27a.74.74,0,0,0-.76.75V29.91a.81.81,0,0,0,.76.78h6.46c3.39-.13,7-2.49,7.15-6V7.45C59.69,3.72,56.72,1.74,52.9,1.47ZM55,11.71V22.55c0,2.78-2.06,3.07-2.06,3.07-.79.17-2.28.58-2.65-.53V7.19c.37-1.11,1.86-.7,2.65-.53,0,0,2.1.28,2.06,3.07Z"/><path class="cls-3" d="M94,6.7c.22,0,2.2.24,2.4,9.19.06,3-.55,7.89-2.11,9.47a.93.93,0,0,1-.74.35.73.73,0,0,1-.55-.27c-1.23-1.27-2-5.23-1.9-10.1v-.08C91.13,10.32,92.35,6.71,94,6.7Zm-8.19,8.55c-.08,4.66.45,10.85,3.4,13.88A6.59,6.59,0,0,0,93.73,31,5.67,5.67,0,0,0,98,29.08c3.65-3.7,3.66-11.74,3.63-13.31-.08-3.57-.32-14.44-7.75-14.36-5,.05-8,5.07-8.13,13.77Z"/><path class="cls-3" d="M24.45,30a.7.7,0,0,1-.62.73H20.41a.77.77,0,0,1-.65-.73V9.64c.06-.22-.15-3.31-2.49-3.28a2.57,2.57,0,0,0-2.59,2.51s0,21.13,0,21.13a.7.7,0,0,1-.62.73h-3.6A.78.78,0,0,1,9.79,30s0-21.1,0-21.13A2.57,2.57,0,0,0,7.22,6.36c-2.35,0-2.56,3.06-2.5,3.28V30a.7.7,0,0,1-.62.74H.65A.78.78,0,0,1,0,30V7.66C.33,4.3,1.65,2.06,4.72,1.32a6.93,6.93,0,0,1,7.52,2.36,6.93,6.93,0,0,1,7.51-2.36c3.07.74,4.39,3,4.71,6.35Z"/><path class="cls-3" d="M33,17.68V8.4A2.08,2.08,0,0,1,35.1,6.54a2,2,0,0,1,1.4.57,1.31,1.31,0,0,1,.45.94s0,4.58,0,9.63ZM41.79,8a6.25,6.25,0,0,0-1.62-4.71,7.35,7.35,0,0,0-5.17-2,6.91,6.91,0,0,0-6.84,7.11V30a.77.77,0,0,0,.65.73h3.56A.7.7,0,0,0,33,30l0-8.35h4c0,2.85,0,8.35,0,8.35a.77.77,0,0,0,.65.73h3.59A.69.69,0,0,0,41.8,30Z"/><path class="cls-3" d="M68.38,2.24a.77.77,0,0,0-.65-.74H64.19a.7.7,0,0,0-.62.74V30a.77.77,0,0,0,.65.73h3.55a.69.69,0,0,0,.61-.73Z"/><path class="cls-3" d="M82.35,25.53a.7.7,0,0,1,.73.62v4c0,.3-.1.65-.47.65l-.18,0a11.13,11.13,0,0,1-8.2-4.3c-3.62-4.92-2.66-15.42-.77-19.24A10.66,10.66,0,0,1,82.3,1.46h0a.7.7,0,0,1,.74.62v4a.79.79,0,0,1-.74.66l0,0a5.3,5.3,0,0,0-4.1,2.87c-1.24,2.49-1.9,10.77.29,13.75a5.39,5.39,0,0,0,3.81,2.14Z"/><path class="cls-3" d="M105.1,1.78a2.78,2.78,0,0,1,1.38.37,2.54,2.54,0,0,1,1,1,2.8,2.8,0,0,1,0,2.8,2.67,2.67,0,0,1-1,1,2.82,2.82,0,0,1-1.4.37A2.78,2.78,0,0,1,103.71,7a2.67,2.67,0,0,1-1-1,2.78,2.78,0,0,1-.37-1.39,2.87,2.87,0,0,1,.38-1.41,2.54,2.54,0,0,1,1-1A2.74,2.74,0,0,1,105.1,1.78Zm0,.47a2.37,2.37,0,0,0-1.14.3,2.11,2.11,0,0,0-.88.87,2.34,2.34,0,0,0-.32,1.17,2.43,2.43,0,0,0,.31,1.16,2.18,2.18,0,0,0,.87.86,2.34,2.34,0,0,0,2.33,0,2.1,2.1,0,0,0,.86-.86,2.34,2.34,0,0,0,0-2.33,2.11,2.11,0,0,0-.88-.87A2.38,2.38,0,0,0,105.1,2.25Zm-1.22,3.89v-3h1a2.75,2.75,0,0,1,.77.08.76.76,0,0,1,.38.3.77.77,0,0,1,.14.44.78.78,0,0,1-.24.57.88.88,0,0,1-.62.28.82.82,0,0,1,.26.16,3.89,3.89,0,0,1,.44.6l.37.59h-.6l-.26-.48A2.38,2.38,0,0,0,105,5a.63.63,0,0,0-.39-.1h-.29V6.14Zm.48-1.7H105a.92.92,0,0,0,.58-.13.44.44,0,0,0,.08-.57.49.49,0,0,0-.21-.16,1.63,1.63,0,0,0-.48-.05h-.56Z"/></svg>