<svg id="Layer_1" data-name="Layer 1" xmlns="http://www.w3.org/2000/svg" viewBox="0 0 246.57 31"><defs><style>.cls-1{fill:#e09e10;}.cls-2{fill:#787878;}.cls-3{fill:#00467f;}</style></defs><title>Section-Logos</title><rect class="cls-1" x="113.05" y="1.43" width="0.45" height="29.08"/><path class="cls-2" d="M125.48,4.62h-3v8h-1.07v-8h-3v-1h7Z"/><path class="cls-2" d="M126.56,3h1v4.5h0a1.72,1.72,0,0,1,.28-.35,2.07,2.07,0,0,1,.43-.31,2.75,2.75,0,0,1,.55-.23,2.27,2.27,0,0,1,.65-.09,2.57,2.57,0,0,1,1,.18,1.83,1.83,0,0,1,.71.5,2,2,0,0,1,.42.77,3.83,3.83,0,0,1,.13,1v3.68h-1V9.07a1.93,1.93,0,0,0-.34-1.19,1.2,1.2,0,0,0-1-.43,1.78,1.78,0,0,0-.83.17,1.41,1.41,0,0,0-.58.47,2,2,0,0,0-.33.72,3.83,3.83,0,0,0-.11.93v2.91h-1Z"/><path class="cls-2" d="M139,11.57a3.15,3.15,0,0,1-1.17,1,3.76,3.76,0,0,1-1.48.27,3,3,0,0,1-1.26-.25,2.82,2.82,0,0,1-.95-.67,2.92,2.92,0,0,1-.6-1,3.63,3.63,0,0,1,0-2.49,3,3,0,0,1,.64-1,2.83,2.83,0,0,1,1-.64,3.23,3.23,0,0,1,1.22-.23,3.06,3.06,0,0,1,1.15.21,2.66,2.66,0,0,1,.9.61,2.9,2.9,0,0,1,.58,1,4.16,4.16,0,0,1,.2,1.32V10h-4.82a2.21,2.21,0,0,0,.6,1.35,1.94,1.94,0,0,0,.6.41,1.86,1.86,0,0,0,.75.15,2.3,2.3,0,0,0,1.1-.23,2.39,2.39,0,0,0,.8-.67Zm-.85-2.44a1.69,1.69,0,0,0-.5-1.22,1.77,1.77,0,0,0-1.3-.46,1.84,1.84,0,0,0-1.95,1.68Z"/><path class="cls-2" d="M150.77,5.49a2.58,2.58,0,0,0-1-.83,3.13,3.13,0,0,0-2.63,0,3.17,3.17,0,0,0-1.09.82,3.62,3.62,0,0,0-.72,1.2,4,4,0,0,0-.25,1.42,4.2,4.2,0,0,0,.25,1.47,3.68,3.68,0,0,0,.71,1.18,3.17,3.17,0,0,0,1.08.8,3.55,3.55,0,0,0,2.88,0,3.37,3.37,0,0,0,1.13-.94l.8.68a3.76,3.76,0,0,1-1.47,1.2,4.8,4.8,0,0,1-1.94.38A4.5,4.5,0,0,1,144.28,10a5.1,5.1,0,0,1-.35-1.9,4.92,4.92,0,0,1,.34-1.86,4.45,4.45,0,0,1,.95-1.51,4.37,4.37,0,0,1,1.45-1,4.5,4.5,0,0,1,1.85-.37,4.78,4.78,0,0,1,1.76.33,3.2,3.2,0,0,1,1.42,1.08Z"/><path class="cls-2" d="M153.33,3h1v9.64h-1Z"/><path class="cls-2" d="M161.63,11.57a3.23,3.23,0,0,1-1.17,1,3.79,3.79,0,0,1-1.48.27,3,3,0,0,1-1.26-.25,2.72,2.72,0,0,1-.95-.67,2.92,2.92,0,0,1-.6-1,3.63,3.63,0,0,1,0-2.49,2.83,2.83,0,0,1,1.61-1.64A3.23,3.23,0,0,1,159,6.53a3.09,3.09,0,0,1,1.15.21,2.62,2.62,0,0,1,.89.61,2.74,2.74,0,0,1,.58,1,3.89,3.89,0,0,1,.21,1.32V10H157a2.21,2.21,0,0,0,.6,1.35,1.94,1.94,0,0,0,.6.41,1.86,1.86,0,0,0,.75.15,2.32,2.32,0,0,0,1.1-.23,2.49,2.49,0,0,0,.8-.67Zm-.85-2.44a1.73,1.73,0,0,0-.5-1.22,1.77,1.77,0,0,0-1.3-.46A1.84,1.84,0,0,0,157,9.13Z"/><path class="cls-2" d="M163.31,7.45a2.8,2.8,0,0,1,1.09-.7,4.05,4.05,0,0,1,1.28-.22,2.54,2.54,0,0,1,1.92.63,2.67,2.67,0,0,1,.58,1.89v2.57a5,5,0,0,0,0,.53c0,.18,0,.35.06.5h-1a2.14,2.14,0,0,1-.05-.45c0-.17,0-.32,0-.44h0a2.47,2.47,0,0,1-.79.75,2.32,2.32,0,0,1-1.18.29,3.43,3.43,0,0,1-.86-.11,2.28,2.28,0,0,1-.7-.34,1.69,1.69,0,0,1-.48-.55,1.74,1.74,0,0,1-.17-.77,1.64,1.64,0,0,1,.38-1.16,2.22,2.22,0,0,1,.95-.62A4.72,4.72,0,0,1,165.6,9c.44,0,.84-.05,1.21-.05h.38V8.76a1.22,1.22,0,0,0-.39-1,1.63,1.63,0,0,0-1.09-.33,2.83,2.83,0,0,0-1,.16,2.22,2.22,0,0,0-.82.49Zm2.88,2.33a3.52,3.52,0,0,0-1.51.27.9.9,0,0,0-.56.88.85.85,0,0,0,.37.79,1.7,1.7,0,0,0,.94.24,1.81,1.81,0,0,0,.76-.15,1.6,1.6,0,0,0,.54-.38,1.89,1.89,0,0,0,.33-.57,2.29,2.29,0,0,0,.13-.7V9.78Z"/><path class="cls-2" d="M170,8.1c0-.27,0-.53,0-.77s0-.45,0-.65h1c0,.17,0,.33,0,.49s0,.33,0,.5h0a1.4,1.4,0,0,1,.28-.42,2.27,2.27,0,0,1,.44-.37,2.36,2.36,0,0,1,.58-.25,2.17,2.17,0,0,1,.69-.1h.2a.76.76,0,0,1,.2.06l-.06,1a1.9,1.9,0,0,0-.54-.07,1.5,1.5,0,0,0-1.33.59A2.81,2.81,0,0,0,171,9.74v2.91h-1Z"/><path class="cls-2" d="M184.53,5.49a2.66,2.66,0,0,0-1-.83,3,3,0,0,0-1.25-.27,3.08,3.08,0,0,0-1.39.31,3.37,3.37,0,0,0-1.09.82,3.78,3.78,0,0,0-.71,1.2,4,4,0,0,0-.25,1.42,4.2,4.2,0,0,0,.25,1.47,3.68,3.68,0,0,0,.71,1.18,3.17,3.17,0,0,0,1.08.8,3.22,3.22,0,0,0,1.4.29,3.18,3.18,0,0,0,1.47-.32,3.31,3.31,0,0,0,1.14-.94l.8.68a3.83,3.83,0,0,1-1.47,1.2,4.8,4.8,0,0,1-1.94.38A4.5,4.5,0,0,1,178,10a5.1,5.1,0,0,1-.35-1.9A4.92,4.92,0,0,1,178,6.28,4.45,4.45,0,0,1,179,4.77a4.37,4.37,0,0,1,1.45-1,4.5,4.5,0,0,1,1.85-.37,4.78,4.78,0,0,1,1.76.33,3.2,3.2,0,0,1,1.42,1.08Z"/><path class="cls-2" d="M187,3h1v4.5h0a2.15,2.15,0,0,1,.28-.35,2.37,2.37,0,0,1,.43-.31,2.85,2.85,0,0,1,.56-.23,2.27,2.27,0,0,1,.65-.09,2.6,2.6,0,0,1,1,.18,1.91,1.91,0,0,1,.71.5,2.1,2.1,0,0,1,.41.77,3.44,3.44,0,0,1,.13,1v3.68h-1V9.07a1.93,1.93,0,0,0-.33-1.19,1.22,1.22,0,0,0-1-.43,1.83,1.83,0,0,0-.84.17,1.44,1.44,0,0,0-.57.47,2,2,0,0,0-.33.72,3.39,3.39,0,0,0-.11.93v2.91h-1Z"/><path class="cls-2" d="M193.49,9.67a3.28,3.28,0,0,1,.24-1.28,3.09,3.09,0,0,1,.67-1,3,3,0,0,1,1-.64,3.55,3.55,0,0,1,1.28-.23,3.5,3.5,0,0,1,1.27.23,3,3,0,0,1,1,.64,3.07,3.07,0,0,1,.66,1,3.51,3.51,0,0,1,0,2.55,3.07,3.07,0,0,1-.66,1,3,3,0,0,1-1,.64,3.3,3.3,0,0,1-1.27.23,3.35,3.35,0,0,1-1.28-.23,3,3,0,0,1-1-.64,3.09,3.09,0,0,1-.67-1A3.27,3.27,0,0,1,193.49,9.67Zm1.07,0a2.49,2.49,0,0,0,.15.87,2,2,0,0,0,.43.7,1.94,1.94,0,0,0,.66.47,2.34,2.34,0,0,0,1.75,0,2,2,0,0,0,.67-.47,2,2,0,0,0,.43-.7,2.8,2.8,0,0,0,0-1.75,2.1,2.1,0,0,0-.43-.7,2.13,2.13,0,0,0-.67-.47,2.34,2.34,0,0,0-1.75,0,2,2,0,0,0-1.09,1.17A2.5,2.5,0,0,0,194.56,9.67Z"/><path class="cls-2" d="M201.19,4.35a.73.73,0,0,1,.21-.51.74.74,0,0,1,1,0,.73.73,0,0,1,.21.51.72.72,0,0,1-.2.52.71.71,0,0,1-.53.21.7.7,0,0,1-.52-.21A.72.72,0,0,1,201.19,4.35Zm.23,2.33h1v6h-1Z"/><path class="cls-2" d="M208.53,8.18a1.82,1.82,0,0,0-1.5-.73,2.16,2.16,0,0,0-.88.17,1.83,1.83,0,0,0-.64.48,2.09,2.09,0,0,0-.37.71,2.63,2.63,0,0,0-.13.86,2.47,2.47,0,0,0,.15.86,2.23,2.23,0,0,0,.41.7,1.66,1.66,0,0,0,.63.48,1.84,1.84,0,0,0,.83.17,1.74,1.74,0,0,0,1.51-.74l.74.71a2.58,2.58,0,0,1-1,.72,3.2,3.2,0,0,1-1.23.23,3.3,3.3,0,0,1-1.27-.23,2.72,2.72,0,0,1-1-.65,3,3,0,0,1-.63-1,3.69,3.69,0,0,1,0-2.51,3,3,0,0,1,.63-1,2.85,2.85,0,0,1,1-.65A3.22,3.22,0,0,1,207,6.53a3.47,3.47,0,0,1,1.25.23,2.72,2.72,0,0,1,1,.71Z"/><path class="cls-2" d="M215.75,11.57a3.07,3.07,0,0,1-1.17,1,3.76,3.76,0,0,1-1.48.27,3,3,0,0,1-1.26-.25,2.82,2.82,0,0,1-1-.67,2.92,2.92,0,0,1-.6-1,3.63,3.63,0,0,1,0-2.49,3.12,3.12,0,0,1,.64-1,2.83,2.83,0,0,1,1-.64,3.23,3.23,0,0,1,1.22-.23,3.06,3.06,0,0,1,1.15.21,2.56,2.56,0,0,1,.9.61,2.9,2.9,0,0,1,.58,1,4.16,4.16,0,0,1,.2,1.32V10h-4.82a2.13,2.13,0,0,0,.19.74,2.33,2.33,0,0,0,.41.61,1.94,1.94,0,0,0,.6.41,1.86,1.86,0,0,0,.75.15,2.3,2.3,0,0,0,1.1-.23A2.39,2.39,0,0,0,215,11Zm-.85-2.44a1.69,1.69,0,0,0-.5-1.22,1.75,1.75,0,0,0-1.3-.46,1.89,1.89,0,0,0-1.33.46,1.92,1.92,0,0,0-.62,1.22Z"/><path class="cls-2" d="M119.75,22.82h-1.3V22h1.3V20.64a4.37,4.37,0,0,1,.11-1,1.85,1.85,0,0,1,.35-.78,1.52,1.52,0,0,1,.65-.52,2.53,2.53,0,0,1,1-.19,3.15,3.15,0,0,1,.41,0,1.3,1.3,0,0,1,.35.12l-.14.89a1.85,1.85,0,0,0-.67-.13,1.11,1.11,0,0,0-.6.14.78.78,0,0,0-.32.37,1.32,1.32,0,0,0-.13.56c0,.22,0,.46,0,.72V22h1.45v.84h-1.45v5.12h-1Z"/><path class="cls-2" d="M122.92,25a3.32,3.32,0,0,1,.24-1.28,2.92,2.92,0,0,1,.66-1,3,3,0,0,1,1-.65,3.5,3.5,0,0,1,1.27-.23,3.59,3.59,0,0,1,1.28.23,3,3,0,0,1,1,.65,2.92,2.92,0,0,1,.66,1,3.14,3.14,0,0,1,.25,1.28,3.06,3.06,0,0,1-.25,1.27,2.87,2.87,0,0,1-.66,1,2.81,2.81,0,0,1-1,.64,3.38,3.38,0,0,1-1.28.23,3.3,3.3,0,0,1-1.27-.23,2.87,2.87,0,0,1-1.67-1.63A3.23,3.23,0,0,1,122.92,25ZM124,25a2.48,2.48,0,0,0,.14.87,2,2,0,0,0,.43.7,2,2,0,0,0,.67.47A2.19,2.19,0,0,0,127,27a1.89,1.89,0,0,0,.67-.47,2,2,0,0,0,.43-.7,2.49,2.49,0,0,0,.15-.87,2.45,2.45,0,0,0-.15-.87,2,2,0,0,0-.43-.7,2,2,0,0,0-.67-.48,2.31,2.31,0,0,0-1.74,0,2.16,2.16,0,0,0-.67.48,2,2,0,0,0-.43.7A2.44,2.44,0,0,0,124,25Z"/><path class="cls-2" d="M130.83,23.39c0-.27,0-.52,0-.76s0-.46,0-.65h.94c0,.16,0,.32,0,.48s0,.33,0,.5h0a1.66,1.66,0,0,1,.29-.42,2,2,0,0,1,.44-.37,2.46,2.46,0,0,1,.57-.25,2.5,2.5,0,0,1,.69-.1l.2,0a.8.8,0,0,1,.21.05l-.07,1a1.55,1.55,0,0,0-.53-.08,1.51,1.51,0,0,0-1.33.59,2.79,2.79,0,0,0-.42,1.63v2.9h-1Z"/><path class="cls-2" d="M143.32,20.51a1.57,1.57,0,0,0-.72-.63,2.25,2.25,0,0,0-.93-.2,2.8,2.8,0,0,0-.7.09,2.16,2.16,0,0,0-.62.27,1.39,1.39,0,0,0-.43.47,1.31,1.31,0,0,0-.17.69,1.33,1.33,0,0,0,.1.54,1,1,0,0,0,.31.43,2.23,2.23,0,0,0,.58.36,8.28,8.28,0,0,0,.91.33c.35.11.68.23,1,.35a3.33,3.33,0,0,1,.87.49,2.14,2.14,0,0,1,.6.73,2.4,2.4,0,0,1,.22,1.1,2.48,2.48,0,0,1-.27,1.18,2.53,2.53,0,0,1-.7.82,3.19,3.19,0,0,1-1,.48,4.25,4.25,0,0,1-1.18.16,4.15,4.15,0,0,1-.79-.07,3.71,3.71,0,0,1-.76-.22,2.68,2.68,0,0,1-.68-.38,2.17,2.17,0,0,1-.55-.58l.92-.75a1.84,1.84,0,0,0,.81.75,2.51,2.51,0,0,0,1.11.26,2.88,2.88,0,0,0,.7-.1,2.29,2.29,0,0,0,.63-.3,1.65,1.65,0,0,0,.45-.5,1.24,1.24,0,0,0,.18-.67,1.35,1.35,0,0,0-.14-.68,1.09,1.09,0,0,0-.43-.45,3.19,3.19,0,0,0-.74-.35l-1-.36a5.62,5.62,0,0,1-.9-.35,2.71,2.71,0,0,1-.7-.48,2.14,2.14,0,0,1-.48-.69,2.53,2.53,0,0,1-.17-1,2.39,2.39,0,0,1,.26-1.13,2.26,2.26,0,0,1,.69-.81,2.91,2.91,0,0,1,1-.49,3.58,3.58,0,0,1,1.14-.17,3.92,3.92,0,0,1,1.4.24,2.67,2.67,0,0,1,1.13.82Z"/><path class="cls-2" d="M145.89,22h1v.86h0a3,3,0,0,1,1-.75,2.63,2.63,0,0,1,1.19-.27,3.28,3.28,0,0,1,1.28.24,2.87,2.87,0,0,1,1,.66,3,3,0,0,1,.64,1,3.51,3.51,0,0,1,0,2.5,3,3,0,0,1-1.58,1.65,2.91,2.91,0,0,1-1.17.23,2.68,2.68,0,0,1-1.41-.35,2.24,2.24,0,0,1-.89-.86h0v4h-1Zm1,3a2.74,2.74,0,0,0,.14.87,2,2,0,0,0,.43.7,2,2,0,0,0,.67.47,2.05,2.05,0,0,0,.87.18,2,2,0,0,0,.87-.18,1.89,1.89,0,0,0,.67-.47,2,2,0,0,0,.43-.7,2.49,2.49,0,0,0,.15-.87,2.45,2.45,0,0,0-.15-.87,2,2,0,0,0-.43-.7,2,2,0,0,0-.67-.48,2.18,2.18,0,0,0-.87-.17,2.21,2.21,0,0,0-.87.17,2.16,2.16,0,0,0-.67.48,2,2,0,0,0-.43.7A2.69,2.69,0,0,0,146.89,25Z"/><path class="cls-2" d="M159.06,26.86a3,3,0,0,1-1.18,1,3.71,3.71,0,0,1-1.47.27,3.23,3.23,0,0,1-1.27-.24,3,3,0,0,1-.95-.67,3,3,0,0,1-.59-1,3.51,3.51,0,0,1-.21-1.22,3.3,3.3,0,0,1,.23-1.27,2.8,2.8,0,0,1,.63-1,3,3,0,0,1,1-.65,3.23,3.23,0,0,1,1.22-.23,3.06,3.06,0,0,1,1.15.21,2.46,2.46,0,0,1,.9.62,2.71,2.71,0,0,1,.58,1,3.82,3.82,0,0,1,.2,1.32v.32h-4.81a1.91,1.91,0,0,0,.18.73,2.21,2.21,0,0,0,.42.61,1.89,1.89,0,0,0,.59.41,1.73,1.73,0,0,0,.76.16A2.41,2.41,0,0,0,157.5,27a2.58,2.58,0,0,0,.81-.68Zm-.86-2.44a1.7,1.7,0,0,0-.49-1.22,1.82,1.82,0,0,0-1.3-.46,1.94,1.94,0,0,0-1.34.46,1.89,1.89,0,0,0-.61,1.22Z"/><path class="cls-2" d="M165.06,23.47a1.82,1.82,0,0,0-1.5-.73,2.16,2.16,0,0,0-.88.17,1.7,1.7,0,0,0-.63.48,2,2,0,0,0-.38.71,2.67,2.67,0,0,0-.13.86,2.43,2.43,0,0,0,.15.86,2.28,2.28,0,0,0,.41.71,1.74,1.74,0,0,0,.63.47,1.84,1.84,0,0,0,.83.18,1.75,1.75,0,0,0,1.51-.74l.74.7a2.58,2.58,0,0,1-1,.72,3.2,3.2,0,0,1-1.23.23,3.3,3.3,0,0,1-1.27-.23,2.69,2.69,0,0,1-1-.64,3.14,3.14,0,0,1-.63-1,3.69,3.69,0,0,1,0-2.51,3,3,0,0,1,1.61-1.65,3.22,3.22,0,0,1,1.26-.24,3.47,3.47,0,0,1,1.25.23,2.75,2.75,0,0,1,1,.72Z"/><path class="cls-2" d="M166.82,19.65a.69.69,0,0,1,.21-.51.71.71,0,0,1,1,0,.69.69,0,0,1,.21.51.73.73,0,1,1-1.45,0Zm.23,2.33h1v6h-1Z"/><path class="cls-2" d="M169.94,22.74a2.9,2.9,0,0,1,1.09-.69,3.8,3.8,0,0,1,1.28-.23,2.51,2.51,0,0,1,1.91.63,2.7,2.7,0,0,1,.59,1.9v2.56c0,.17,0,.35,0,.53s0,.35.07.5h-1a2.89,2.89,0,0,1-.06-.45v-.44h0a2.16,2.16,0,0,1-.78.75,2.22,2.22,0,0,1-1.18.29A3,3,0,0,1,171,28a2.17,2.17,0,0,1-.7-.34,1.69,1.69,0,0,1-.48-.55,1.59,1.59,0,0,1-.18-.77,1.69,1.69,0,0,1,.38-1.16,2.34,2.34,0,0,1,.95-.62,4.8,4.8,0,0,1,1.23-.26c.43,0,.84-.05,1.2-.05h.38v-.18a1.24,1.24,0,0,0-.38-1,1.65,1.65,0,0,0-1.09-.33,3.05,3.05,0,0,0-1,.16,2.4,2.4,0,0,0-.83.49Zm2.88,2.33a3.57,3.57,0,0,0-1.52.27.91.91,0,0,0-.56.88.87.87,0,0,0,.38.8,1.79,1.79,0,0,0,.94.23,1.93,1.93,0,0,0,.75-.14,1.71,1.71,0,0,0,.55-.39,1.78,1.78,0,0,0,.33-.57,2.27,2.27,0,0,0,.12-.69v-.39Z"/><path class="cls-2" d="M176.72,18.31h1v9.63h-1Z"/><path class="cls-2" d="M183,22.82h-1.75v3c0,.2,0,.38,0,.54a1.19,1.19,0,0,0,.1.44.69.69,0,0,0,.27.29,1,1,0,0,0,.51.11,2.28,2.28,0,0,0,.44-.05A2.09,2.09,0,0,0,183,27l0,.91a2.51,2.51,0,0,1-.57.16,3.13,3.13,0,0,1-.59.05A2.06,2.06,0,0,1,181,28a1.15,1.15,0,0,1-.5-.39,1.62,1.62,0,0,1-.23-.63,5.35,5.35,0,0,1-.06-.84V22.82h-1.3V22h1.3v-1.7h1V22H183Z"/><path class="cls-2" d="M186.38,29.31c-.1.25-.21.48-.31.69a2.47,2.47,0,0,1-.38.54,1.66,1.66,0,0,1-.54.34,2.13,2.13,0,0,1-.76.12l-.45,0a1.11,1.11,0,0,1-.44-.12l.13-.87a1.16,1.16,0,0,0,.32.08,2.18,2.18,0,0,0,.38,0,.91.91,0,0,0,.71-.26,2.43,2.43,0,0,0,.4-.72l.4-1.12-2.47-6h1.16l1.85,4.67h0L188.18,22h1.08Z"/><path class="cls-2" d="M198.33,20.51a1.5,1.5,0,0,0-.71-.63,2.32,2.32,0,0,0-.93-.2,2.74,2.74,0,0,0-.7.09,2,2,0,0,0-.62.27,1.3,1.3,0,0,0-.6,1.16,1.53,1.53,0,0,0,.09.54,1.15,1.15,0,0,0,.31.43,2.3,2.3,0,0,0,.59.36,8.86,8.86,0,0,0,.9.33c.35.11.69.23,1,.35a3.44,3.44,0,0,1,.86.49,2.14,2.14,0,0,1,.6.73,2.39,2.39,0,0,1,.23,1.1,2.48,2.48,0,0,1-.27,1.18,2.56,2.56,0,0,1-.71.82,3,3,0,0,1-1,.48,4.5,4.5,0,0,1-2,.09,4.12,4.12,0,0,1-.76-.22,2.68,2.68,0,0,1-.68-.38,2.54,2.54,0,0,1-.55-.58l.92-.75a1.92,1.92,0,0,0,.82.75,2.51,2.51,0,0,0,1.11.26,2.74,2.74,0,0,0,.69-.1,2.29,2.29,0,0,0,.63-.3,1.69,1.69,0,0,0,.46-.5,1.24,1.24,0,0,0,.18-.67,1.46,1.46,0,0,0-.14-.68,1.23,1.23,0,0,0-.43-.45,3.4,3.4,0,0,0-.74-.35l-1-.36a5.5,5.5,0,0,1-.89-.35,2.77,2.77,0,0,1-.71-.48,2,2,0,0,1-.47-.69,2.53,2.53,0,0,1-.17-1,2.38,2.38,0,0,1,.25-1.13,2.26,2.26,0,0,1,.69-.81,3.11,3.11,0,0,1,1-.49,3.68,3.68,0,0,1,1.15-.17,4,4,0,0,1,1.4.24,2.65,2.65,0,0,1,1.12.82Z"/><path class="cls-2" d="M200.61,25a3.32,3.32,0,0,1,.25-1.28,2.92,2.92,0,0,1,.66-1,3,3,0,0,1,1-.65,3.5,3.5,0,0,1,1.27-.23,3.59,3.59,0,0,1,1.28.23,3,3,0,0,1,1,.65,2.92,2.92,0,0,1,.66,1A3.14,3.14,0,0,1,207,25a3.06,3.06,0,0,1-.25,1.27,2.87,2.87,0,0,1-.66,1,2.81,2.81,0,0,1-1,.64,3.38,3.38,0,0,1-1.28.23,3.3,3.3,0,0,1-1.27-.23,2.87,2.87,0,0,1-1.67-1.63A3.23,3.23,0,0,1,200.61,25Zm1.08,0a2.48,2.48,0,0,0,.14.87,2,2,0,0,0,.43.7,2,2,0,0,0,.67.47,2.19,2.19,0,0,0,1.74,0,1.89,1.89,0,0,0,.67-.47,2,2,0,0,0,.43-.7,2.49,2.49,0,0,0,.15-.87,2.45,2.45,0,0,0-.15-.87,2,2,0,0,0-.43-.7,2,2,0,0,0-.67-.48,2.31,2.31,0,0,0-1.74,0,2.16,2.16,0,0,0-.67.48,2,2,0,0,0-.43.7A2.44,2.44,0,0,0,201.69,25Z"/><path class="cls-2" d="M208.62,18.31h1v9.63h-1Z"/><path class="cls-2" d="M216.79,26.53c0,.27,0,.52,0,.76s0,.46,0,.65h-1c0-.16,0-.32,0-.48s0-.33,0-.5h0a1.71,1.71,0,0,1-.28.42,1.92,1.92,0,0,1-.44.36,2,2,0,0,1-.58.26,2.48,2.48,0,0,1-.68.09,2.83,2.83,0,0,1-1-.17,1.9,1.9,0,0,1-.7-.5,2,2,0,0,1-.42-.77,3.44,3.44,0,0,1-.13-1V22h1v3.58a1.88,1.88,0,0,0,.33,1.18,1.22,1.22,0,0,0,1,.44,1.93,1.93,0,0,0,.84-.17,1.53,1.53,0,0,0,.57-.47,2,2,0,0,0,.33-.73,3.39,3.39,0,0,0,.11-.93V22h1Z"/><path class="cls-2" d="M221.94,22.82h-1.76v3c0,.2,0,.38,0,.54a1.19,1.19,0,0,0,.1.44.69.69,0,0,0,.27.29,1,1,0,0,0,.51.11,2.28,2.28,0,0,0,.44-.05A2.09,2.09,0,0,0,222,27l0,.91a2.38,2.38,0,0,1-.57.16,3.13,3.13,0,0,1-.59.05A2.06,2.06,0,0,1,220,28a1.07,1.07,0,0,1-.49-.39,1.48,1.48,0,0,1-.24-.63,5.35,5.35,0,0,1-.06-.84V22.82h-1.3V22h1.3v-1.7h1V22h1.76Z"/><path class="cls-2" d="M223,19.65a.69.69,0,0,1,.21-.51.71.71,0,0,1,1,0,.75.75,0,0,1,0,1,.73.73,0,0,1-1.25-.52Zm.23,2.33h1v6h-1Z"/><path class="cls-2" d="M225.89,25a3.32,3.32,0,0,1,.24-1.28,2.92,2.92,0,0,1,.66-1,3,3,0,0,1,1-.65,3.5,3.5,0,0,1,1.27-.23,3.59,3.59,0,0,1,1.28.23,3,3,0,0,1,1,.65,3.1,3.1,0,0,1,.67,1,3.32,3.32,0,0,1,.24,1.28,3.23,3.23,0,0,1-.24,1.27,3,3,0,0,1-.67,1,2.81,2.81,0,0,1-1,.64,3.38,3.38,0,0,1-1.28.23,3.3,3.3,0,0,1-1.27-.23,2.87,2.87,0,0,1-1.67-1.63A3.23,3.23,0,0,1,225.89,25ZM227,25a2.48,2.48,0,0,0,.14.87,2,2,0,0,0,.43.7,2,2,0,0,0,.67.47,2.05,2.05,0,0,0,.87.18,2,2,0,0,0,.87-.18,1.89,1.89,0,0,0,.67-.47,2,2,0,0,0,.43-.7,2.49,2.49,0,0,0,.15-.87,2.45,2.45,0,0,0-.15-.87,2,2,0,0,0-.43-.7,2,2,0,0,0-.67-.48,2.18,2.18,0,0,0-.87-.17,2.21,2.21,0,0,0-.87.17,2.16,2.16,0,0,0-.67.48,2,2,0,0,0-.43.7A2.44,2.44,0,0,0,227,25Z"/><path class="cls-2" d="M233.8,23.39c0-.27,0-.52,0-.76s0-.46,0-.65h.94c0,.16,0,.32,0,.48s0,.33,0,.5h0a1.66,1.66,0,0,1,.29-.42,2,2,0,0,1,.44-.37,2.46,2.46,0,0,1,.57-.25,2.5,2.5,0,0,1,.69-.1,2.57,2.57,0,0,1,1,.18,1.94,1.94,0,0,1,.71.5,2,2,0,0,1,.42.77,3.83,3.83,0,0,1,.13,1v3.68h-1V24.36a1.88,1.88,0,0,0-.33-1.18,1.21,1.21,0,0,0-1-.44,1.92,1.92,0,0,0-.83.17,1.49,1.49,0,0,0-.58.47,2,2,0,0,0-.33.73,3.83,3.83,0,0,0-.11.93v2.9h-1Z"/><path class="cls-2" d="M241,26.37a2.39,2.39,0,0,0,.65.59,1.69,1.69,0,0,0,.88.22,2.59,2.59,0,0,0,.47-.05,1.42,1.42,0,0,0,.42-.17,1,1,0,0,0,.31-.29.68.68,0,0,0,.11-.41.72.72,0,0,0-.1-.4,1.22,1.22,0,0,0-.29-.26,1.68,1.68,0,0,0-.41-.17l-.47-.11c-.28-.06-.55-.13-.8-.21a2.17,2.17,0,0,1-.67-.3,1.38,1.38,0,0,1-.46-.47,1.69,1.69,0,0,1,0-1.52,1.78,1.78,0,0,1,.51-.55,2.72,2.72,0,0,1,.71-.33,2.86,2.86,0,0,1,.82-.12,2.75,2.75,0,0,1,1.18.26,1.82,1.82,0,0,1,.84.83l-.82.55a1.49,1.49,0,0,0-.51-.52,1.41,1.41,0,0,0-.76-.2,2,2,0,0,0-.41.05,1.45,1.45,0,0,0-.38.16.75.75,0,0,0-.27.26.61.61,0,0,0-.11.36.48.48,0,0,0,.12.33,1.27,1.27,0,0,0,.33.23,2.79,2.79,0,0,0,.49.18l.57.13a5.88,5.88,0,0,1,.75.19,2.28,2.28,0,0,1,.62.33,1.48,1.48,0,0,1,.42.51,1.67,1.67,0,0,1,.16.75,1.7,1.7,0,0,1-.21.87,1.67,1.67,0,0,1-.54.58,2.41,2.41,0,0,1-.77.32,3.57,3.57,0,0,1-.87.1,3.32,3.32,0,0,1-1.32-.23,2.45,2.45,0,0,1-1-.87Z"/><path class="cls-3" d="M52.63,1.47H46a.74.74,0,0,0-.76.75V29.76a.8.8,0,0,0,.76.77h6.43c3.37-.12,7-2.47,7.11-6V7.42C59.39,3.71,56.42,1.74,52.63,1.47Zm2.1,10.18V22.44c0,2.77-2.06,3-2.06,3-.78.17-2.26.58-2.63-.53V7.16c.37-1.11,1.85-.7,2.63-.53,0,0,2.1.28,2.06,3.05Z"/><path class="cls-3" d="M93.47,6.67c.22,0,2.19.24,2.39,9.14.07,3-.54,7.85-2.09,9.43a.93.93,0,0,1-.74.34.67.67,0,0,1-.55-.27c-1.23-1.26-2-5.2-1.88-10v-.08C90.67,10.27,91.87,6.69,93.47,6.67Zm-8.14,8.51C85.25,19.82,85.78,26,88.71,29a6.57,6.57,0,0,0,4.54,1.86,5.64,5.64,0,0,0,4.27-1.92c3.63-3.68,3.64-11.67,3.6-13.24-.07-3.55-.32-14.36-7.7-14.29-5,.05-8,5.05-8.09,13.71Z"/><path class="cls-3" d="M24.32,29.85a.69.69,0,0,1-.61.73H20.3a.77.77,0,0,1-.64-.73V9.6c.06-.22-.15-3.3-2.48-3.27a2.56,2.56,0,0,0-2.58,2.5s0,21,0,21a.7.7,0,0,1-.61.73H10.39a.77.77,0,0,1-.65-.73s0-21,0-21a2.56,2.56,0,0,0-2.58-2.5C4.85,6.3,4.64,9.38,4.7,9.6V29.8a.68.68,0,0,1-.61.73H.65A.77.77,0,0,1,0,29.8V7.63C.33,4.28,1.65,2.05,4.7,1.31a6.9,6.9,0,0,1,7.47,2.35,6.9,6.9,0,0,1,7.48-2.34c3.05.73,4.37,3,4.68,6.31Z"/><path class="cls-3" d="M32.81,17.6V8.36a2.07,2.07,0,0,1,2.11-1.84,2,2,0,0,1,1.4.55,1.38,1.38,0,0,1,.44.94s0,4.56,0,9.59ZM41.58,8A6.22,6.22,0,0,0,40,3.28a7.26,7.26,0,0,0-5.15-2A6.87,6.87,0,0,0,28,8.32V29.85a.77.77,0,0,0,.64.73h3.55a.69.69,0,0,0,.61-.73l0-8.3h4c0,2.83,0,8.3,0,8.3a.77.77,0,0,0,.65.73H41a.7.7,0,0,0,.61-.73Z"/><path class="cls-3" d="M68,2.23a.77.77,0,0,0-.65-.73H63.86a.69.69,0,0,0-.61.73V29.85a.77.77,0,0,0,.65.73h3.53a.69.69,0,0,0,.61-.73Z"/><path class="cls-3" d="M81.92,25.4a.7.7,0,0,1,.74.62v4c0,.3-.11.65-.47.65l-.18,0a11.12,11.12,0,0,1-8.16-4.28c-3.6-4.89-2.65-15.34-.77-19.14a10.61,10.61,0,0,1,8.8-5.82h0a.69.69,0,0,1,.73.61v4a.78.78,0,0,1-.73.65l0,0A5.25,5.25,0,0,0,77.8,9.62c-1.23,2.48-1.89,10.71.29,13.68a5.31,5.31,0,0,0,3.79,2.12Z"/><path class="cls-3" d="M104.56,1.78a2.9,2.9,0,0,1,1.38.36,2.58,2.58,0,0,1,1,1A2.81,2.81,0,0,1,107,6a2.62,2.62,0,0,1-1,1,2.78,2.78,0,0,1-2.77,0,2.64,2.64,0,0,1-1-1,2.92,2.92,0,0,1-.37-1.39,2.83,2.83,0,0,1,.38-1.4,2.58,2.58,0,0,1,1-1A2.89,2.89,0,0,1,104.56,1.78Zm0,.46a2.37,2.37,0,0,0-1.14.3,2.18,2.18,0,0,0-.87.86,2.38,2.38,0,0,0-.31,1.17,2.35,2.35,0,0,0,.3,1.15,2.27,2.27,0,0,0,.87.87,2.37,2.37,0,0,0,2.31,0,2.18,2.18,0,0,0,.86-.87,2.26,2.26,0,0,0,.31-1.15,2.5,2.5,0,0,0-.31-1.17,2.18,2.18,0,0,0-.87-.86A2.44,2.44,0,0,0,104.56,2.24Zm-1.22,3.87v-3h1a2.8,2.8,0,0,1,.77.08.82.82,0,0,1,.37.29.74.74,0,0,1,.14.44.81.81,0,0,1-.23.58.94.94,0,0,1-.62.27.77.77,0,0,1,.25.16,3.63,3.63,0,0,1,.45.59l.36.59h-.59L105,5.64a2.4,2.4,0,0,0-.5-.7.63.63,0,0,0-.39-.1h-.28V6.11Zm.49-1.69h.58A1,1,0,0,0,105,4.3a.43.43,0,0,0,.15-.34.39.39,0,0,0-.07-.23.42.42,0,0,0-.21-.16,1.38,1.38,0,0,0-.48,0h-.55Z"/></svg>