<?xml version="1.0" encoding="utf-8"?>
<!-- Generator: Adobe Illustrator 23.0.1, SVG Export Plug-In . SVG Version: 6.00 Build 0)  -->
<svg version="1.1" id="Layer_1" xmlns="http://www.w3.org/2000/svg" xmlns:xlink="http://www.w3.org/1999/xlink" x="0px" y="0px"
	 viewBox="0 0 161.9 31" style="enable-background:new 0 0 161.9 31;" xml:space="preserve">
<style type="text/css">
	.st0{fill:#00467F;}
	.st1{fill:#E09F26;}
</style>
<title>Section-Logos</title>
<g>
	<g>
		<path class="st0" d="M53.2,1c-1.4,0-6.2,0-6.6,0c-0.5,0-0.8,0.4-0.8,0.7v27.7c0,0.4,0.4,0.8,0.8,0.8H53c3.4-0.1,7-2.5,7.1-6
			c0-1.7,0-12.7,0-17.3C60,3.2,57,1.2,53.2,1z M55.3,11.2v3.1v7.7c0,2.8-2.1,3.1-2.1,3.1c-0.8,0.2-2.3,0.6-2.6-0.5V13.7v-3.5V6.7
			C51,5.6,52.5,6,53.2,6.2c0,0,2.1,0.3,2.1,3.1V11.2z"/>
		<path class="st0" d="M94.3,6.2c0.2,0,2.2,0.2,2.4,9.2c0.1,3-0.5,7.9-2.1,9.5c-0.3,0.3-0.5,0.3-0.7,0.3c-0.2,0-0.3,0-0.6-0.3
			c-1.2-1.3-2-5.2-1.9-10.1v-0.1C91.4,9.8,92.7,6.2,94.3,6.2z M86.1,14.8c-0.1,4.7,0.4,10.9,3.4,13.9c1.2,1.2,2.9,1.9,4.6,1.9
			c1.7,0,3-0.7,4.3-1.9c3.7-3.7,3.7-11.7,3.6-13.3c-0.1-3.6-0.3-14.4-7.7-14.4C89.2,1,86.2,6,86.1,14.8L86.1,14.8z"/>
		<path class="st0" d="M24.7,29.5c0,0.4-0.3,0.7-0.6,0.7h-3.4c-0.3,0-0.7-0.4-0.7-0.7l0-20.4c0.1-0.2-0.2-3.3-2.5-3.3
			C15,5.9,15,8.4,15,8.4c0,0,0,21.1,0,21.1c0,0.4-0.3,0.7-0.6,0.7h-3.6c-0.3,0-0.7-0.4-0.7-0.7c0,0,0-21.1,0-21.1
			c0,0-0.1-2.5-2.6-2.5C5.2,5.8,4.9,8.9,5,9.1l0,20.3c0,0.4-0.3,0.7-0.6,0.7H0.9c-0.3,0-0.7-0.4-0.7-0.7l0-22.3
			C0.6,3.8,1.9,1.6,5,0.8c2.8-0.9,5.9,0.2,7.5,2.4C14.1,1,17.3-0.1,20,0.8c3.1,0.7,4.4,3,4.7,6.4L24.7,29.5z"/>
		<path class="st0" d="M33.3,17.2l0-9.3c0-1.1,1.1-1.8,2.1-1.9c0.5,0,1,0.2,1.4,0.6c0.3,0.3,0.4,0.6,0.4,0.9c0,0,0,4.6,0,9.6H33.3z
			 M42.1,7.5c0-1.8-0.3-3.5-1.6-4.7c-1.4-1.3-3.3-2.1-5.2-2c-4,0.1-6.8,3.2-6.8,7.1c0,0,0,21.6,0,21.6c0,0.4,0.4,0.7,0.7,0.7h3.6
			c0.3,0,0.6-0.3,0.6-0.7l0-8.3h4c0,2.8,0,8.3,0,8.3c0,0.4,0.4,0.7,0.7,0.7h3.6c0.3,0,0.6-0.3,0.6-0.7L42.1,7.5z"/>
		<path class="st0" d="M68.7,1.7C68.7,1.4,68.3,1,68,1h-3.5c-0.3,0-0.6,0.3-0.6,0.7l0,27.8c0,0.4,0.4,0.7,0.7,0.7h3.5
			c0.3,0,0.6-0.3,0.6-0.7V1.7z"/>
		<path class="st0" d="M82.7,25c0.4,0,0.7,0.3,0.7,0.6v4c0,0.3-0.1,0.7-0.5,0.7l-0.2,0c-2.1-0.2-5.8-1-8.2-4.3
			c-3.6-4.9-2.7-15.4-0.8-19.2C76,2.2,80.4,1.2,82.6,1l0,0c0.4,0,0.7,0.3,0.7,0.6v4c0,0.3-0.4,0.7-0.7,0.7l0,0
			c-1.3,0.2-3.1,0.9-4.1,2.9c-1.2,2.5-1.9,10.8,0.3,13.8C79.9,24.4,81.4,24.9,82.7,25L82.7,25z"/>
		<g>
			<path class="st0" d="M105.4,1.3c0.5,0,0.9,0.1,1.4,0.4c0.4,0.2,0.8,0.6,1,1c0.3,0.4,0.4,0.9,0.4,1.4c0,0.5-0.1,0.9-0.4,1.4
				c-0.2,0.4-0.6,0.8-1,1c-0.4,0.2-0.9,0.4-1.4,0.4c-0.5,0-1-0.1-1.4-0.4c-0.4-0.2-0.8-0.6-1-1c-0.2-0.4-0.4-0.9-0.4-1.4
				c0-0.5,0.1-1,0.4-1.4c0.3-0.4,0.6-0.8,1-1C104.5,1.4,104.9,1.3,105.4,1.3z M105.4,1.7c-0.4,0-0.8,0.1-1.1,0.3
				c-0.4,0.2-0.7,0.5-0.9,0.9c-0.2,0.4-0.3,0.8-0.3,1.2c0,0.4,0.1,0.8,0.3,1.2c0.2,0.4,0.5,0.7,0.9,0.9c0.4,0.2,0.8,0.3,1.2,0.3
				c0.4,0,0.8-0.1,1.2-0.3c0.4-0.2,0.7-0.5,0.9-0.9c0.2-0.4,0.3-0.8,0.3-1.2c0-0.4-0.1-0.8-0.3-1.2c-0.2-0.4-0.5-0.7-0.9-0.9
				C106.2,1.8,105.8,1.7,105.4,1.7z M104.2,5.6v-3h1c0.4,0,0.6,0,0.8,0.1c0.2,0.1,0.3,0.2,0.4,0.3c0.1,0.1,0.1,0.3,0.1,0.4
				c0,0.2-0.1,0.4-0.2,0.6c-0.2,0.2-0.4,0.3-0.6,0.3c0.1,0,0.2,0.1,0.3,0.2c0.1,0.1,0.3,0.3,0.4,0.6l0.4,0.6h-0.6l-0.3-0.5
				c-0.2-0.4-0.4-0.6-0.5-0.7c-0.1-0.1-0.2-0.1-0.4-0.1h-0.3v1.3H104.2z M104.7,3.9h0.6c0.3,0,0.5,0,0.6-0.1
				c0.1-0.1,0.2-0.2,0.2-0.3c0-0.1,0-0.2-0.1-0.2c0-0.1-0.1-0.1-0.2-0.2c-0.1,0-0.3-0.1-0.5-0.1h-0.6V3.9z"/>
		</g>
	</g>
	<rect x="114.4" y="0.8" class="st1" width="0.5" height="29.2"/>
	<g>
		<path class="st0" d="M121,1.5h4c0.5,0,0.9,0,1.4,0.1c0.5,0.1,0.9,0.2,1.3,0.4c0.4,0.2,0.7,0.5,0.9,0.8c0.2,0.4,0.4,0.8,0.4,1.4
			c0,0.6-0.2,1.1-0.5,1.5c-0.3,0.4-0.8,0.7-1.4,0.9v0c0.4,0.1,0.7,0.2,1,0.3c0.3,0.1,0.5,0.3,0.7,0.6c0.2,0.2,0.4,0.5,0.5,0.8
			c0.1,0.3,0.2,0.6,0.2,1c0,0.6-0.1,1-0.4,1.4c-0.2,0.4-0.6,0.7-0.9,0.9c-0.4,0.2-0.8,0.4-1.3,0.5c-0.5,0.1-1,0.2-1.4,0.2H121V1.5z
			 M123.4,5.8h1.7c0.2,0,0.4,0,0.5-0.1c0.2,0,0.3-0.1,0.5-0.2c0.1-0.1,0.3-0.2,0.3-0.4c0.1-0.2,0.1-0.3,0.1-0.5c0-0.2,0-0.4-0.1-0.6
			c-0.1-0.1-0.2-0.3-0.4-0.3c-0.2-0.1-0.3-0.1-0.5-0.2c-0.2,0-0.4-0.1-0.6-0.1h-1.6V5.8z M123.4,10.3h2.1c0.2,0,0.4,0,0.6-0.1
			c0.2,0,0.4-0.1,0.5-0.2c0.2-0.1,0.3-0.2,0.4-0.4c0.1-0.2,0.1-0.4,0.1-0.6c0-0.3-0.1-0.5-0.2-0.6c-0.1-0.2-0.3-0.3-0.5-0.4
			c-0.2-0.1-0.4-0.1-0.6-0.2c-0.2,0-0.4,0-0.6,0h-1.8V10.3z"/>
		<path class="st0" d="M130.7,4.9h2.3v1.2h0c0.2-0.5,0.5-0.8,0.9-1c0.3-0.2,0.8-0.3,1.3-0.3c0.1,0,0.3,0,0.4,0c0.1,0,0.3,0,0.4,0.1
			v2.1c-0.2-0.1-0.3-0.1-0.5-0.1c-0.2,0-0.3,0-0.5,0c-0.4,0-0.8,0.1-1,0.2c-0.3,0.1-0.5,0.3-0.6,0.5S133,7.9,133,8.2
			c0,0.3-0.1,0.6-0.1,1v3.1h-2.3V4.9z"/>
		<path class="st0" d="M141.5,11.4L141.5,11.4c-0.3,0.4-0.6,0.7-1,0.9c-0.4,0.2-0.9,0.3-1.3,0.3c-0.3,0-0.7,0-1-0.1
			c-0.3-0.1-0.6-0.2-0.8-0.4s-0.4-0.4-0.6-0.7c-0.1-0.3-0.2-0.6-0.2-1c0-0.4,0.1-0.8,0.2-1.1c0.2-0.3,0.4-0.5,0.6-0.7
			c0.3-0.2,0.6-0.3,0.9-0.5c0.3-0.1,0.7-0.2,1.1-0.2c0.4-0.1,0.7-0.1,1.1-0.1c0.4,0,0.7,0,1,0c0-0.4-0.1-0.7-0.4-1
			c-0.3-0.2-0.6-0.4-1-0.4c-0.4,0-0.7,0.1-1,0.2c-0.3,0.2-0.6,0.4-0.8,0.6L137,5.9c0.4-0.4,0.9-0.7,1.5-0.9c0.6-0.2,1.2-0.3,1.8-0.3
			c0.7,0,1.2,0.1,1.7,0.3c0.4,0.2,0.8,0.4,1,0.7c0.3,0.3,0.4,0.7,0.5,1.2c0.1,0.5,0.2,1,0.2,1.6v3.8h-2.1V11.4z M141,9.1
			c-0.2,0-0.4,0-0.6,0c-0.3,0-0.5,0.1-0.7,0.1c-0.2,0.1-0.4,0.2-0.6,0.3c-0.2,0.1-0.3,0.3-0.3,0.6c0,0.3,0.1,0.5,0.4,0.6
			c0.2,0.1,0.5,0.2,0.7,0.2c0.2,0,0.4,0,0.6-0.1c0.2-0.1,0.4-0.1,0.6-0.3c0.2-0.1,0.3-0.3,0.4-0.4c0.1-0.2,0.1-0.4,0.1-0.6V9.1H141z
			"/>
		<path class="st0" d="M145.1,4.9h2.2v1h0c0.1-0.1,0.2-0.3,0.3-0.4c0.1-0.1,0.3-0.3,0.5-0.4c0.2-0.1,0.4-0.2,0.6-0.3
			c0.2-0.1,0.5-0.1,0.8-0.1c0.6,0,1,0.1,1.4,0.3c0.4,0.2,0.6,0.4,0.8,0.7c0.2,0.3,0.3,0.7,0.4,1.1c0.1,0.4,0.1,0.9,0.1,1.4v4.1h-2.3
			V8.7c0-0.2,0-0.4,0-0.7c0-0.2-0.1-0.4-0.1-0.6c-0.1-0.2-0.2-0.4-0.4-0.5s-0.4-0.2-0.7-0.2c-0.3,0-0.5,0.1-0.7,0.2
			c-0.2,0.1-0.3,0.2-0.4,0.4c-0.1,0.2-0.2,0.4-0.2,0.6c0,0.2,0,0.5,0,0.7v3.7h-2.3V4.9z"/>
		<path class="st0" d="M161.6,12.3h-2.1v-1h0c-0.1,0.1-0.2,0.3-0.4,0.4c-0.1,0.1-0.3,0.3-0.5,0.4c-0.2,0.1-0.4,0.2-0.7,0.3
			c-0.2,0.1-0.5,0.1-0.7,0.1c-0.5,0-1-0.1-1.5-0.3c-0.4-0.2-0.8-0.5-1.2-0.8s-0.6-0.7-0.7-1.2c-0.2-0.5-0.3-1-0.3-1.5
			c0-0.5,0.1-1,0.2-1.5c0.2-0.5,0.4-0.9,0.7-1.3c0.3-0.4,0.6-0.7,1.1-0.9c0.4-0.2,0.9-0.3,1.4-0.3c0.5,0,0.9,0.1,1.3,0.2
			c0.4,0.1,0.8,0.4,1,0.8h0V0.8h2.3V12.3z M159.5,8.6c0-0.6-0.2-1-0.5-1.4c-0.3-0.3-0.8-0.5-1.4-0.5c-0.6,0-1,0.2-1.4,0.5
			c-0.3,0.3-0.5,0.8-0.5,1.4c0,0.6,0.2,1,0.5,1.4c0.3,0.3,0.8,0.5,1.4,0.5c0.6,0,1-0.2,1.4-0.5C159.4,9.6,159.5,9.2,159.5,8.6z"/>
		<path class="st0" d="M121,18.6h2.4v4h4.6v-4h2.4v10.8h-2.4v-4.7h-4.6v4.7H121V18.6z"/>
		<path class="st0" d="M139.5,29.4h-2.2v-1h0c-0.1,0.1-0.2,0.3-0.3,0.4c-0.1,0.1-0.3,0.3-0.5,0.4c-0.2,0.1-0.4,0.2-0.6,0.3
			c-0.2,0.1-0.5,0.1-0.8,0.1c-0.6,0-1.1-0.1-1.4-0.3c-0.4-0.2-0.6-0.4-0.8-0.7c-0.2-0.3-0.3-0.7-0.4-1.1c-0.1-0.4-0.1-0.9-0.1-1.4
			V22h2.3v3.6c0,0.2,0,0.4,0,0.7c0,0.2,0.1,0.4,0.1,0.6c0.1,0.2,0.2,0.4,0.4,0.5c0.2,0.1,0.4,0.2,0.7,0.2c0.3,0,0.5-0.1,0.7-0.2
			c0.2-0.1,0.3-0.2,0.4-0.4c0.1-0.2,0.2-0.4,0.2-0.6c0-0.2,0-0.5,0-0.7V22h2.3V29.4z"/>
		<path class="st0" d="M141.3,17.9h2.3v4.9h0c0.3-0.4,0.6-0.6,1-0.8c0.4-0.1,0.9-0.2,1.3-0.2c0.5,0,1,0.1,1.4,0.3
			c0.4,0.2,0.8,0.5,1.1,0.9c0.3,0.4,0.5,0.8,0.7,1.3s0.2,1,0.2,1.5c0,0.6-0.1,1.1-0.3,1.5c-0.2,0.5-0.4,0.9-0.7,1.2
			c-0.3,0.3-0.7,0.6-1.2,0.8c-0.4,0.2-0.9,0.3-1.5,0.3c-0.3,0-0.5,0-0.7-0.1c-0.2-0.1-0.5-0.2-0.6-0.3c-0.2-0.1-0.4-0.2-0.5-0.4
			c-0.1-0.1-0.3-0.3-0.4-0.4h0v1h-2.1V17.9z M143.4,25.7c0,0.6,0.2,1,0.5,1.4c0.3,0.3,0.8,0.5,1.4,0.5s1-0.2,1.4-0.5
			c0.3-0.3,0.5-0.8,0.5-1.4c0-0.6-0.2-1-0.5-1.4c-0.3-0.3-0.8-0.5-1.4-0.5s-1,0.2-1.4,0.5C143.6,24.7,143.4,25.2,143.4,25.7z"/>
	</g>
</g>
</svg>
