<svg id="Layer_1" data-name="Layer 1" xmlns="http://www.w3.org/2000/svg" viewBox="0 0 102.3 100.04"><defs></defs><title>madico-u-icon</title><path class="cls-1" fill="#4d7da6" id="madico-bug" d="M7162.66,7229.88a32,32,0,0,1-3.54-15.21c.05-12.58,0-25.16,0-37.74a.68.68,0,0,0,0-.15V7171h-10.81c0,14.06,0,28.12.07,42.19.09,11.39,4.89,20.69,13.81,27.78a35.28,35.28,0,0,0,23.09,7.66,39,39,0,0,0,4.54-.44,38.44,38.44,0,0,1-14-4.75A33.33,33.33,0,0,1,7162.66,7229.88Z" transform="translate(-7148.31 -7148.65)"/><path class="cls-1" d="M7250.6,7187.8h0v-39.15h-41v10.8h.05v15.39h0v31.66h0q0,3.14,0,6.27a7.07,7.07,0,0,0-.05,1.3c-.2.88-.17,1.59-.31,2.48a24.27,24.27,0,0,1-4.69,11.1,4.22,4.22,0,0,0-.24.55c1.3-.24,2.46-.39,3.58-.67a14.89,14.89,0,0,0,8.43-5.42,6.32,6.32,0,0,0,.6-1.12h0c.4-.82.87-1.62,1.29-2.43a12,12,0,0,0,1-2.51,32.71,32.71,0,0,0,1-7.29c.14-6.36.05-12.72,0-19.09a.43.43,0,0,1,0-.05v-14.78h0q0-6.94,0-13.88a2.8,2.8,0,0,1,.13-1.24h19.29v21.74h0c0,10.22.05,20.45,0,30.68-.09,11.27-5.48,19.26-15.71,23.84-9.24,4.15-21.28,1.34-28.06-6.23a26.94,26.94,0,0,1-5.78-10.24,3.86,3.86,0,0,0-.2-.66c-.09-.71-.26-1.18-.33-1.9-.15-1.59-.39-3.18-.39-4.76q0-27.1,0-54.21v-9.31h-40.89v1.39c0,3.18,0,6.37,0,9.56h10.79v-.08h19.28c0,.5.06.89.06,1.28q0,26,0,51.93a34.74,34.74,0,0,0,2.75,13.67l.83,1.88c5.8,11.2,14.83,18,27.35,20a36.1,36.1,0,0,0,29.61-9.19,35.4,35.4,0,0,0,10.83-19.44,43.43,43.43,0,0,0,.71-7.46C7250.63,7204.05,7250.61,7195.92,7250.6,7187.8Z" transform="translate(-7148.31 -7148.65)"/></svg>