<svg id="Layer_1" data-name="Layer 1" xmlns="http://www.w3.org/2000/svg" viewBox="0 0 122.67 51.95"><defs><style>.cls-1{fill:#00467f;}.cls-2{fill:#797979;}</style></defs><title>Section-Logos</title><path class="cls-1" d="M58.83.53H51.45a.82.82,0,0,0-.84.83V32.15a.89.89,0,0,0,.84.86h7.2c3.76-.14,7.78-2.76,7.94-6.65V7.18C66.38,3,63.07.82,58.83.53Zm2.34,11.38V24c0,3.1-2.29,3.42-2.29,3.42-.87.19-2.53.64-2.94-.59V6.88c.41-1.23,2.07-.78,2.94-.59,0,0,2.34.32,2.29,3.42Z"/><path class="cls-1" d="M104.49,6.34c.24,0,2.45.26,2.67,10.21.07,3.32-.61,8.78-2.34,10.54a1,1,0,0,1-.83.39.79.79,0,0,1-.61-.3c-1.37-1.41-2.2-5.82-2.11-11.23v-.09C101.35,10.36,102.7,6.36,104.49,6.34Zm-9.11,9.51c-.08,5.18.5,12.07,3.78,15.44a7.35,7.35,0,0,0,5.08,2.07A6.29,6.29,0,0,0,109,31.23c4.06-4.12,4.07-13.06,4-14.81-.09-4-.36-16-8.61-16-5.61.06-8.91,5.64-9,15.32Z"/><path class="cls-1" d="M27.19,32.25a.78.78,0,0,1-.69.82H22.7a.87.87,0,0,1-.73-.82V9.61C22,9.37,21.8,5.92,19.19,6a2.86,2.86,0,0,0-2.88,2.79s0,23.5,0,23.5a.78.78,0,0,1-.69.82h-4a.87.87,0,0,1-.72-.82s0-23.47,0-23.5A2.86,2.86,0,0,0,8,6c-2.61,0-2.84,3.41-2.78,3.65V32.2a.77.77,0,0,1-.69.81H.73A.86.86,0,0,1,0,32.2L0,7.41C.37,3.67,1.84,1.17,5.25.35A7.71,7.71,0,0,1,13.61,3,7.72,7.72,0,0,1,22,.35c3.42.83,4.89,3.32,5.24,7.06Z"/><path class="cls-1" d="M36.67,18.55V8.23A2.31,2.31,0,0,1,39,6.17a2.21,2.21,0,0,1,1.56.62,1.48,1.48,0,0,1,.49,1V18.55ZM46.48,7.79c0-2-.36-3.85-1.8-5.24A8.16,8.16,0,0,0,38.92.28a7.68,7.68,0,0,0-7.6,7.9V32.25a.87.87,0,0,0,.72.82h4a.78.78,0,0,0,.69-.82l0-9.28h4.41c0,3.17,0,9.28,0,9.28a.87.87,0,0,0,.72.82h4a.78.78,0,0,0,.69-.82Z"/><path class="cls-1" d="M76.05,1.38a.86.86,0,0,0-.73-.82H71.39a.78.78,0,0,0-.69.82V32.25a.87.87,0,0,0,.73.82h3.94a.78.78,0,0,0,.69-.82Z"/><path class="cls-1" d="M91.58,27.28a.78.78,0,0,1,.82.69v4.48c0,.33-.12.73-.53.73h-.2a12.38,12.38,0,0,1-9.12-4.78c-4-5.46-3-17.14-.86-21.39A11.84,11.84,0,0,1,91.53.52l0,0a.78.78,0,0,1,.82.69v4.5a.87.87,0,0,1-.82.72l0,0A5.84,5.84,0,0,0,87,9.63c-1.38,2.77-2.12,12,.32,15.29a6,6,0,0,0,4.24,2.38Z"/><path class="cls-1" d="M116.89.87a3.3,3.3,0,0,1,1.53.4,2.88,2.88,0,0,1,1.16,1.16A3.15,3.15,0,0,1,120,4a3.21,3.21,0,0,1-.41,1.55,2.89,2.89,0,0,1-1.15,1.15,3.09,3.09,0,0,1-3.11,0,2.83,2.83,0,0,1-1.15-1.15A3.1,3.1,0,0,1,113.77,4a3.15,3.15,0,0,1,.42-1.56,2.88,2.88,0,0,1,1.16-1.16A3.3,3.3,0,0,1,116.89.87Zm0,.52a2.68,2.68,0,0,0-1.28.33,2.47,2.47,0,0,0-1,1,2.64,2.64,0,0,0-.35,1.3,2.61,2.61,0,0,0,.35,1.29,2.46,2.46,0,0,0,1,1,2.67,2.67,0,0,0,1.3.35,2.63,2.63,0,0,0,1.29-.35,2.46,2.46,0,0,0,1-1A2.59,2.59,0,0,0,119.48,4a2.54,2.54,0,0,0-.35-1.3,2.38,2.38,0,0,0-1-1A2.67,2.67,0,0,0,116.89,1.39Zm-1.37,4.32V2.36h1.15a3,3,0,0,1,.86.09.84.84,0,0,1,.42.33.86.86,0,0,1,.15.49.88.88,0,0,1-.26.64,1,1,0,0,1-.69.3,1,1,0,0,1,.28.18,3.82,3.82,0,0,1,.5.67l.41.65h-.67l-.29-.53a3.08,3.08,0,0,0-.57-.78.74.74,0,0,0-.43-.11h-.32V5.71Zm.54-1.88h.66a1,1,0,0,0,.64-.15.45.45,0,0,0,.17-.37.47.47,0,0,0-.08-.26.52.52,0,0,0-.23-.18,1.68,1.68,0,0,0-.55-.06h-.61Z"/><path class="cls-2" d="M17.45,42.68H14.7v7.41h-1V42.68H11v-.91h6.49Z"/><path class="cls-2" d="M18.45,41.2h.92v4.15h0a1.46,1.46,0,0,1,.26-.32,2,2,0,0,1,.39-.29,2.69,2.69,0,0,1,.52-.21,1.87,1.87,0,0,1,.59-.08,2.4,2.4,0,0,1,.94.16,1.71,1.71,0,0,1,.65.46,1.88,1.88,0,0,1,.39.71,3.28,3.28,0,0,1,.12.91v3.4h-.92v-3.3a1.82,1.82,0,0,0-.3-1.1,1.17,1.17,0,0,0-1-.4,1.82,1.82,0,0,0-.77.16,1.38,1.38,0,0,0-.53.43,2,2,0,0,0-.3.67,3.33,3.33,0,0,0-.1.86v2.68h-.92Z"/><path class="cls-2" d="M29.91,49.09a2.77,2.77,0,0,1-1.08.89,3.45,3.45,0,0,1-1.37.26A2.86,2.86,0,0,1,26.3,50a2.69,2.69,0,0,1-.88-.62,2.75,2.75,0,0,1-.55-.92,3.24,3.24,0,0,1-.2-1.13,3.2,3.2,0,0,1,.21-1.17,2.91,2.91,0,0,1,.59-.92,2.66,2.66,0,0,1,.9-.59,3,3,0,0,1,1.13-.21,2.76,2.76,0,0,1,1.05.19,2.2,2.2,0,0,1,.83.57,2.46,2.46,0,0,1,.54.9,3.81,3.81,0,0,1,.19,1.22v.29H25.66a2,2,0,0,0,.17.68,2,2,0,0,0,.38.56,1.71,1.71,0,0,0,.56.39,1.74,1.74,0,0,0,.69.14,2,2,0,0,0,1.75-.84Zm-.79-2.24a1.6,1.6,0,0,0-.46-1.13,1.66,1.66,0,0,0-1.2-.43,1.77,1.77,0,0,0-1.23.43,1.74,1.74,0,0,0-.57,1.13Z"/><path class="cls-2" d="M40.8,43.48a2.44,2.44,0,0,0-.93-.76,2.87,2.87,0,0,0-1.15-.25,3,3,0,0,0-1.28.28,3.12,3.12,0,0,0-1,.76,3.27,3.27,0,0,0-.66,1.11,3.62,3.62,0,0,0-.24,1.31,3.78,3.78,0,0,0,.24,1.36,3.23,3.23,0,0,0,.65,1.09,3,3,0,0,0,2.29,1,3,3,0,0,0,1.36-.3,3.1,3.1,0,0,0,1.05-.87l.74.63A3.41,3.41,0,0,1,40.51,50a4.3,4.3,0,0,1-1.79.36A4.22,4.22,0,0,1,37.05,50a4.1,4.1,0,0,1-1.35-.92,4,4,0,0,1-.89-1.38,4.55,4.55,0,0,1-.33-1.75,4.69,4.69,0,0,1,.32-1.72,4.25,4.25,0,0,1,.87-1.39,4.14,4.14,0,0,1,3-1.27,4.54,4.54,0,0,1,1.63.31,3,3,0,0,1,1.31,1Z"/><path class="cls-2" d="M43.16,41.2h.92v8.89h-.92Z"/><path class="cls-2" d="M50.82,49.09a2.77,2.77,0,0,1-1.08.89,3.4,3.4,0,0,1-1.36.26A2.91,2.91,0,0,1,47.21,50a2.64,2.64,0,0,1-.87-.62,2.77,2.77,0,0,1-.56-.92,3.41,3.41,0,0,1,0-2.3,2.74,2.74,0,0,1,.59-.92,2.71,2.71,0,0,1,.89-.59,3,3,0,0,1,1.13-.21,2.78,2.78,0,0,1,1.06.19,2.28,2.28,0,0,1,.83.57,2.44,2.44,0,0,1,.53.9A3.55,3.55,0,0,1,51,47.33v.29H46.58a1.79,1.79,0,0,0,.17.68,1.68,1.68,0,0,0,.38.56,1.67,1.67,0,0,0,1.25.53,2.22,2.22,0,0,0,1-.21,2.29,2.29,0,0,0,.74-.63ZM50,46.85a1.55,1.55,0,0,0-.45-1.13,1.66,1.66,0,0,0-1.2-.43,1.8,1.8,0,0,0-1.24.43,1.78,1.78,0,0,0-.56,1.13Z"/><path class="cls-2" d="M52.38,45.29a2.57,2.57,0,0,1,1-.64,3.7,3.7,0,0,1,1.18-.2,2.35,2.35,0,0,1,1.77.57,2.51,2.51,0,0,1,.54,1.76v2.36c0,.16,0,.32,0,.49s0,.32.06.46h-.88a1.7,1.7,0,0,1,0-.41c0-.16,0-.29,0-.41h0a2.11,2.11,0,0,1-.73.69,2.06,2.06,0,0,1-1.08.28,2.92,2.92,0,0,1-.8-.11,2.17,2.17,0,0,1-.65-.31,1.66,1.66,0,0,1-.44-.51,1.49,1.49,0,0,1-.16-.71,1.57,1.57,0,0,1,.35-1.07,2.22,2.22,0,0,1,.88-.58,4.44,4.44,0,0,1,1.13-.23c.4,0,.77,0,1.11,0H56v-.16a1.13,1.13,0,0,0-.36-.91,1.51,1.51,0,0,0-1-.31,2.67,2.67,0,0,0-.88.15,2.16,2.16,0,0,0-.76.45ZM55,47.45a3.42,3.42,0,0,0-1.4.24.85.85,0,0,0-.51.82.79.79,0,0,0,.34.73,1.58,1.58,0,0,0,.87.22,1.68,1.68,0,0,0,.7-.14,1.43,1.43,0,0,0,.5-.36,1.48,1.48,0,0,0,.3-.52A1.91,1.91,0,0,0,56,47.8v-.35Z"/><path class="cls-2" d="M58.55,45.89c0-.25,0-.48,0-.7s0-.42,0-.6h.88c0,.15,0,.3,0,.45s0,.3,0,.45h0a1.56,1.56,0,0,1,.27-.38,1.89,1.89,0,0,1,.4-.34,1.94,1.94,0,0,1,.53-.23,2.2,2.2,0,0,1,.64-.09h.19a.61.61,0,0,1,.18,0l-.05.93a1.69,1.69,0,0,0-.5-.08,1.42,1.42,0,0,0-1.23.55,2.64,2.64,0,0,0-.38,1.5v2.68h-.92Z"/><path class="cls-2" d="M72,43.48a2.44,2.44,0,0,0-.93-.76,2.87,2.87,0,0,0-1.15-.25,3,3,0,0,0-1.28.28,3.24,3.24,0,0,0-1,.76,3.71,3.71,0,0,0-.9,2.42,3.78,3.78,0,0,0,.24,1.36,3.4,3.4,0,0,0,.65,1.09,3,3,0,0,0,2.29,1,3,3,0,0,0,1.36-.3,3.1,3.1,0,0,0,1.05-.87l.74.63A3.34,3.34,0,0,1,71.67,50a4.27,4.27,0,0,1-1.79.36A4.22,4.22,0,0,1,68.21,50a4.1,4.1,0,0,1-1.35-.92A4,4,0,0,1,66,47.68a4.54,4.54,0,0,1-.32-1.75A4.69,4.69,0,0,1,66,44.21a4.25,4.25,0,0,1,.87-1.39,4.14,4.14,0,0,1,3-1.27,4.54,4.54,0,0,1,1.63.31,3,3,0,0,1,1.31,1Z"/><path class="cls-2" d="M74.24,41.2h.92v4.15h0a1.4,1.4,0,0,1,.25-.32,2.06,2.06,0,0,1,.4-.29,2.36,2.36,0,0,1,.51-.21,2,2,0,0,1,.6-.08,2.47,2.47,0,0,1,.94.16,1.71,1.71,0,0,1,.65.46,1.87,1.87,0,0,1,.38.71,3.28,3.28,0,0,1,.12.91v3.4h-.91v-3.3a1.82,1.82,0,0,0-.31-1.1,1.13,1.13,0,0,0-.95-.4,1.79,1.79,0,0,0-.77.16,1.31,1.31,0,0,0-.53.43,2,2,0,0,0-.31.67,3.83,3.83,0,0,0-.1.86v2.68h-.92Z"/><path class="cls-2" d="M80.47,47.34a3,3,0,0,1,.22-1.18,2.85,2.85,0,0,1,.61-.91,2.79,2.79,0,0,1,.93-.59,3.25,3.25,0,0,1,1.18-.21,3.29,3.29,0,0,1,1.18.21,2.65,2.65,0,0,1,.92.59,2.88,2.88,0,0,1,.62.91,3.27,3.27,0,0,1,0,2.36,2.88,2.88,0,0,1-.62.91,2.65,2.65,0,0,1-.92.59,3.3,3.3,0,0,1-1.18.22A3.26,3.26,0,0,1,82.23,50a2.79,2.79,0,0,1-.93-.59,2.85,2.85,0,0,1-.61-.91A3,3,0,0,1,80.47,47.34Zm1,0a2.37,2.37,0,0,0,.13.81,1.78,1.78,0,0,0,.4.64,1.8,1.8,0,0,0,.61.44,1.92,1.92,0,0,0,.81.16,1.89,1.89,0,0,0,1.42-.6,1.92,1.92,0,0,0,.4-.64,2.37,2.37,0,0,0,.13-.81,2.28,2.28,0,0,0-.13-.8,1.87,1.87,0,0,0-.4-.65,1.84,1.84,0,0,0-.62-.44,2,2,0,0,0-.8-.16,2.09,2.09,0,0,0-.81.16,1.8,1.8,0,0,0-.61.44,1.73,1.73,0,0,0-.4.65A2.28,2.28,0,0,0,81.46,47.34Z"/><path class="cls-2" d="M87.64,42.44a.65.65,0,0,1,.2-.47.61.61,0,0,1,.47-.2.62.62,0,0,1,.48.2.64.64,0,0,1,.19.47.68.68,0,0,1-.18.48.68.68,0,0,1-1.16-.48Zm.22,2.15h.91v5.5h-.91Z"/><path class="cls-2" d="M94.51,46a1.69,1.69,0,0,0-1.38-.67,2.1,2.1,0,0,0-.82.16,1.72,1.72,0,0,0-.58.44,2.08,2.08,0,0,0-.35.66,2.85,2.85,0,0,0-.11.79,2.36,2.36,0,0,0,.13.8,2.22,2.22,0,0,0,.38.65,1.69,1.69,0,0,0,.58.44,1.74,1.74,0,0,0,.77.16,1.64,1.64,0,0,0,1.4-.68l.68.64a2.36,2.36,0,0,1-.94.67A3.14,3.14,0,0,1,92,50a2.54,2.54,0,0,1-.9-.6,2.78,2.78,0,0,1-.58-.91,3.42,3.42,0,0,1-.2-1.17,3.31,3.31,0,0,1,.2-1.15,2.85,2.85,0,0,1,.59-.92,2.54,2.54,0,0,1,.9-.6,2.89,2.89,0,0,1,1.16-.22,3.17,3.17,0,0,1,1.15.21,2.44,2.44,0,0,1,1,.66Z"/><path class="cls-2" d="M101.18,49.09a2.77,2.77,0,0,1-1.08.89,3.4,3.4,0,0,1-1.36.26A2.94,2.94,0,0,1,97.57,50a2.64,2.64,0,0,1-.87-.62,2.77,2.77,0,0,1-.56-.92,3.41,3.41,0,0,1,0-2.3,2.74,2.74,0,0,1,.59-.92,2.71,2.71,0,0,1,.89-.59,3,3,0,0,1,1.13-.21,2.78,2.78,0,0,1,1.06.19,2.28,2.28,0,0,1,.83.57,2.6,2.6,0,0,1,.54.9,3.82,3.82,0,0,1,.18,1.22v.29H96.94a1.79,1.79,0,0,0,.17.68,1.85,1.85,0,0,0,.38.56,1.67,1.67,0,0,0,1.25.53,2.22,2.22,0,0,0,1-.21,2.29,2.29,0,0,0,.74-.63Zm-.78-2.24a1.6,1.6,0,0,0-.46-1.13,1.66,1.66,0,0,0-1.2-.43,1.81,1.81,0,0,0-1.24.43,1.78,1.78,0,0,0-.56,1.13Z"/></svg>